<?xml version="1.0" encoding="utf-8"?>
<!-- Generator: Adobe Illustrator 26.3.1, SVG Export Plug-In . SVG Version: 6.00 Build 0)  -->
<svg version="1.1" xmlns="http://www.w3.org/2000/svg" xmlns:xlink="http://www.w3.org/1999/xlink" x="0px" y="0px"
	 viewBox="0 0 425.2 425.2" style="enable-background:new 0 0 425.2 425.2;" xml:space="preserve">
<style type="text/css">
	.st0{fill:#FFFFFF;}
</style>
<g id="Layer_2">
</g>
<g id="LOGO__x7C__xA0_TILRETTET_M">
	<g>
		<path class="st0" d="M174.6,193.8c-1.5-9.9-3.7-14.9-6.5-15.1c-1.8,0.3-3.4,2.2-4.9,5.6c-1.5,3.4-2.9,7.3-4,11.7s-2,8.2-2.6,11.6
			c-0.2-12.4-1.3-21.5-3.4-27.3c0-0.1-0.1-0.3-0.1-0.4c-0.1-0.1-1.9-5.9-5-5.9c0,0,0,0-0.1,0l0,0l0,0l0,0c-2.2,0-4.2,2.2-6.1,6.6
			c-2.7,6.3-4.9,14.2-6.5,23.6c0,0.2-0.2,0.8-0.2,1c-0.3,2-1.4,10.3-1.4,10.4c-0.2,2.2-0.3,4.3-0.3,6.2c0,4.4,0.6,6.6,1.8,6.6
			c0.2,0,0.4-0.2,0.4-0.6c0-0.2,0-0.3-0.1-0.4c-0.7-0.7-1-2.6-1-5.8c0-1.8,0-3.8,0.2-5.8c0.1-0.8,0.7-7,1.3-10.1
			c0,0,0.1-0.3,0.1-0.4c0.6-3.8,1.5-7.9,2.6-12.2c3.3-12.1,6.4-18.2,9.3-18.2c0.1,0,0.1,0,0.2,0c2.4,0.1,3.9,4.9,3.9,4.9
			c0.4,1.1,0.7,2.3,1,3.7c1.5,6.8,2.4,14.8,2.6,24c0.1,3.7,0.3,5.6,0.5,5.6c0.4,0,0.6-0.2,0.6-0.5c1.9-10.7,4.1-19.5,6.7-26.3
			c1.7-4.5,3.4-6.7,5-6.7c1.8,0,3.6,4.7,5.3,14.1c1.3,7.7,2,15.1,2,22.3c0,7-0.7,10.8-2,11.4c-0.3,0-0.4,0.2-0.4,0.6
			c0,0.2,0.2,0.4,0.5,0.4h0.1c1.4-0.6,2.3-2.3,2.5-5.3s0.3-5.5,0.3-7.5C176.6,208.6,176,201.3,174.6,193.8z"/>
		<path class="st0" d="M174.1,228.5H174c-0.4,0-0.6-0.3-0.6-0.5c0-0.2,0-0.7,0.5-0.7c0.9-0.4,1.9-2.8,1.9-11.3c0-7-0.7-14.3-2-22.3
			c-2.1-11.6-4-14-5.2-14c-1.6,0-3.2,2.3-4.9,6.6c-2.5,6.7-4.7,15.3-6.7,26.3c0,0.4-0.3,0.6-0.7,0.6c-0.2,0-0.5,0-0.6-5.7
			c-0.2-9-1.1-17-2.6-24c-0.3-1.6-0.6-2.7-1-3.7c0-0.1-1.5-4.7-3.8-4.8h-0.2c-2.8,0-5.9,6.1-9.2,18.1c-1.2,4.6-2,8.6-2.6,12.2
			c0,0.1-0.1,0.3-0.1,0.4c-0.5,2.5-1,7.1-1.2,9.1c-0.1,0.5-0.1,0.8-0.1,1c-0.2,2-0.2,4-0.2,5.8c0,3.2,0.3,5,1,5.7
			c0.1,0.1,0.1,0.3,0.1,0.5c0,0.5-0.3,0.7-0.5,0.7c-1.3,0-1.9-2.2-1.9-6.7c0-1.9,0.1-4,0.3-6.2c0-0.1,1.1-8.7,1.4-10.4
			c0-0.1,0-0.3,0.1-0.5c0-0.2,0.1-0.4,0.1-0.5c1.6-9.3,3.8-17.3,6.5-23.7c1.9-4.5,4-6.7,6.2-6.7h0.1c1.9,0,3.6,1.9,5,5.7
			c0.1,0.1,0.1,0.2,0.1,0.2l0,0l0,0c0,0,0,0.1,0,0.2c0,0.1,0.1,0.2,0.1,0.2c2,5.6,3.1,14,3.4,25.9c0.6-3.2,1.5-6.8,2.3-10.2
			c1-4,2.4-8,4-11.7c1.6-3.5,3.2-5.4,5-5.7c2.9,0.2,5.2,5.3,6.7,15.2c1.2,6.5,1.9,13.4,2.3,21.8c0,2-0.1,4.5-0.3,7.5
			C176.5,226.1,175.7,227.9,174.1,228.5L174.1,228.5z M173.9,227.5c-0.1,0-0.3,0-0.3,0.5c0,0.1,0.1,0.3,0.4,0.3h0.1
			c1.4-0.6,2.2-2.4,2.4-5.2c0.2-3,0.3-5.5,0.3-7.5c-0.4-8.4-1.1-15.3-2.3-21.8l0,0c-1.5-9.7-3.6-14.8-6.4-15
			c-1.7,0.3-3.2,2.1-4.8,5.5c-1.6,3.7-3,7.7-4,11.7c-1,3.9-2,8-2.6,11.6l-0.3,0c-0.2-12.6-1.3-21.5-3.4-27.3l0,0c0,0,0-0.1,0-0.2
			c0-0.1,0-0.1-0.1-0.2c0,0,0-0.1-0.1-0.3c-1.8-4.6-3.6-5.5-4.8-5.5H148c-2.1,0-4.1,2.1-6,6.5c-2.7,6.4-4.9,14.3-6.5,23.6
			c0,0.1,0,0.3-0.1,0.5c0,0.2-0.1,0.4-0.1,0.5c-0.3,2-1.4,10.2-1.4,10.4c-0.2,2.2-0.3,4.3-0.3,6.2c0,5.3,0.9,6.5,1.7,6.5
			c0.1,0,0.3-0.2,0.3-0.5c0-0.2,0-0.2-0.1-0.3c-0.7-0.7-1-2.5-1-5.9c0-1.8,0-3.8,0.2-5.8c0-0.2,0.1-0.5,0.1-1c0.2-2,0.7-6.6,1.2-9.1
			c0-0.2,0.1-0.3,0.1-0.4c0.6-3.6,1.4-7.6,2.6-12.2c3.4-12.3,6.4-18.3,9.4-18.3h0.2c2.5,0.1,4,4.8,4,5c0.4,1,0.7,2.1,1,3.7
			c1.5,6.9,2.4,15,2.6,24c0.1,3.8,0.3,5.2,0.4,5.5c0.2,0,0.4-0.1,0.4-0.4c2-11.1,4.2-19.7,6.7-26.4c1.7-4.5,3.4-6.8,5.1-6.8
			c1.9,0,3.7,4.8,5.4,14.2c1.3,8,2,15.3,2,22.3C176,223,175.3,226.9,173.9,227.5L173.9,227.5z"/>
	</g>
	<g>
		<path class="st0" d="M180.1,213.5c-0.3-0.2-0.4-0.7-0.4-1.3c0-2.3,1.1-4.3,3.3-5.8c0.7-0.4,1.4-0.7,2.2-0.7c0.6,0,1.3,0.2,1.9,0.6
			c0.1,0,0.1,0,0.2,0.1s0.1,0.1,0.1,0.2l-0.1,0.2c-0.2,0.5-0.4,1.3-0.4,2.2c0,0.3,0,0.7,0.1,1.2s0.2,0.8,0.5,1.1s0.7,0.4,1.3,0.4
			c1.4,0,3.4-1.1,6.3-3.4l0.4-0.1c0.3,0,0.4,0.2,0.5,0.6c0,0.2-0.1,0.3-0.2,0.4c-3.1,2.4-5.4,3.6-7.1,3.6c-0.6,0-1.1-0.2-1.5-0.6
			c-0.4-0.4-0.8-0.8-0.9-1.4c-0.2-0.6-0.2-1.2-0.2-1.7c-2.2,3.2-3.9,4.8-5.2,4.8L180.1,213.5z M182.5,211.6c0.7-0.8,1.4-1.6,2.2-2.5
			c0.7-0.9,1.2-1.7,1.6-2.2l-1.1-0.1c-0.6,0-1.1,0.2-1.7,0.5c-1.9,1.5-2.8,3.2-2.8,5c0,0.4,0.1,0.5,0.1,0.5
			C181.2,212.7,181.8,212.3,182.5,211.6z"/>
		<path class="st0" d="M180.9,214L180.9,214l-0.9-0.4c-0.3-0.2-0.5-0.7-0.5-1.4c0-2.4,1.2-4.4,3.4-5.9c0.6-0.4,1.4-0.7,2.3-0.7
			c0.7,0,1.4,0.2,1.9,0.6c0.1,0,0.1,0,0.3,0.1c0.1,0.1,0.1,0.2,0.1,0.3l0,0.1l-0.1,0.2c-0.2,0.6-0.4,1.4-0.4,2.1
			c0,0.3,0,0.7,0.1,1.2c0.1,0.5,0.2,0.8,0.5,1c0.3,0.3,0.6,0.4,1.2,0.4c1.3,0,3.3-1.1,6.2-3.4l0.1,0l0.4-0.1c0,0,0,0,0,0
			c0.5,0,0.6,0.3,0.7,0.7c0,0.3-0.1,0.4-0.2,0.5c-3.2,2.5-5.5,3.6-7.2,3.6c-0.6,0-1.2-0.2-1.6-0.6c-0.4-0.4-0.8-0.8-0.9-1.5
			c-0.1-0.4-0.2-0.9-0.2-1.3C183.8,212.6,182.2,214,180.9,214z M180.2,213.4l0.8,0.4c1.2,0,2.9-1.6,5.1-4.7l0.3-0.4v0.5
			c0,0.5,0,1.1,0.2,1.7c0.1,0.6,0.5,1,0.9,1.3c0.4,0.4,0.8,0.6,1.4,0.6c1.6,0,3.9-1.1,7-3.6c0.1-0.1,0.1-0.1,0.1-0.3
			c-0.1-0.4-0.2-0.5-0.4-0.5l-0.3,0.1c-3,2.4-4.9,3.4-6.4,3.4c-0.7,0-1.1-0.1-1.4-0.4c-0.3-0.3-0.4-0.6-0.5-1.2
			c-0.1-0.5-0.1-0.9-0.1-1.2c0-1.1,0.3-1.9,0.4-2.3l0.1-0.2c0,0,0,0,0,0c0,0,0,0,0,0c0,0,0,0-0.1-0.1c0,0-0.1-0.1-0.1-0.1
			c0,0,0,0,0,0h0l0,0c-0.5-0.4-1.2-0.6-1.8-0.6c-0.8,0-1.5,0.3-2.1,0.7c-2.1,1.4-3.2,3.4-3.2,5.7C179.8,212.8,180,213.2,180.2,213.4
			z M180.8,213L180.8,213c-0.1-0.1-0.2-0.2-0.2-0.7c0-1.9,1-3.6,2.9-5.1c0.7-0.3,1.2-0.5,1.8-0.5l1.4,0.1l-0.2,0.2
			c-0.2,0.2-0.4,0.5-0.6,0.8c-0.3,0.4-0.6,0.9-1,1.3c-0.8,0.8-1.4,1.6-2.1,2.4l-0.1,0.2C181.9,212.4,181.3,212.8,180.8,213
			L180.8,213z M185.2,206.9c-0.5,0-1,0.2-1.6,0.5c-1.8,1.4-2.7,3.1-2.7,4.9c0,0.2,0,0.3,0,0.3c0.4-0.1,0.9-0.5,1.5-1.1l0.1-0.2
			c0.7-0.7,1.3-1.5,2.1-2.3c0.4-0.5,0.7-0.9,1-1.3c0.2-0.2,0.3-0.5,0.5-0.7L185.2,206.9z"/>
	</g>
	<g>
		<path class="st0" d="M195.8,214.9c-0.5-0.3-0.8-2.2-0.8-5.6c0-3.2,0.3-4.7,1-4.7c0.4,0,0.6,0.2,0.6,0.6c-0.1,0.2-0.2,0.3-0.4,0.4
			c-0.2,0.5-0.3,1.4-0.3,2.9c0,1.4,0.1,2.8,0.1,4l0.2-1.2c0.6-3.5,1.3-5.3,2.2-5.3c0.4,0,0.8,0.3,1,1c0.8,1.3,1.6,1.9,2.6,1.9
			c0.6,0,1.4-0.2,2.2-0.6c0.4,0,0.6,0.2,0.7,0.5c0,0.2-0.1,0.4-0.3,0.5c-1,0.4-1.9,0.7-2.6,0.7c-1.5,0-2.6-0.8-3.5-2.5l-0.2-0.2
			l-1.1,4.3c-0.3,1.6-0.5,2.5-0.7,2.9s-0.4,0.6-0.6,0.7L195.8,214.9z"/>
		<path class="st0" d="M195.8,215.4l-0.1-0.4c-0.5-0.4-0.8-2.3-0.8-5.7c0-3.4,0.3-4.8,1.1-4.8c0.5,0,0.7,0.3,0.7,0.7l0,0.1
			c-0.1,0.2-0.2,0.3-0.4,0.4c-0.2,0.5-0.3,1.4-0.3,2.8c0,0.7,0,1.4,0.1,2.1c0,0.1,0,0.2,0,0.4c0.6-3.6,1.3-5.1,2.3-5.1
			c0.5,0,0.9,0.4,1.1,1.1c0.8,1.3,1.5,1.8,2.5,1.8c0.6,0,1.4-0.2,2.1-0.6l0.1,0c0.4,0,0.7,0.2,0.8,0.6l0,0c0,0.3-0.1,0.5-0.4,0.6
			c-0.9,0.4-1.9,0.7-2.7,0.7c-1.5,0-2.7-0.8-3.6-2.6l0,0l-1,4.1c-0.3,1.5-0.5,2.5-0.7,2.9c-0.2,0.4-0.4,0.6-0.7,0.8L195.8,215.4z
			 M196,204.7c-0.6,0-0.9,1.5-0.9,4.6c0,4.7,0.6,5.4,0.7,5.5l0,0l0.1,0.2c0.1-0.1,0.3-0.3,0.4-0.5c0.2-0.4,0.4-1.4,0.7-2.9l1.2-4.5
			l0.4,0.4c0.9,1.7,1.9,2.4,3.4,2.4c0.7,0,1.7-0.3,2.5-0.7c0.1-0.1,0.2-0.2,0.2-0.3c-0.1-0.3-0.3-0.4-0.5-0.4
			c-0.8,0.4-1.6,0.6-2.2,0.6c-1,0-1.9-0.6-2.7-2l0,0c-0.2-0.6-0.5-0.9-0.9-0.9c-0.8,0-1.5,1.7-2.1,5.2l-0.2,1.2l-0.3,0
			c0-0.6,0-1.2,0-1.8c0-0.7-0.1-1.4-0.1-2.2c0-1.5,0.1-2.4,0.3-3l0,0l0,0c0.2-0.1,0.2-0.2,0.3-0.3
			C196.4,204.9,196.3,204.7,196,204.7z"/>
	</g>
	<g>
		<path class="st0" d="M204.2,210.2c0-1.6,0.2-2.8,0.5-3.6c0-0.3,0.2-0.4,0.6-0.4c0.2,0,0.4,0.2,0.4,0.6c-0.3,1.2-0.4,2.5-0.4,4.1
			c0,1.2,0.3,1.8,0.9,1.8c1.1,0,2.9-1.5,5.3-4.5l0.5-0.2c0.1,0,0.1,0.1,0.2,0.1c0.1,0.1,0.1,0.2,0.1,0.3c0,0.3-0.5,1-1.5,2.1
			c-1.8,2-3.3,3.1-4.6,3.2C204.9,213.8,204.2,212.6,204.2,210.2z M204.6,204.5c0-0.5,0.2-0.7,0.7-0.7s0.7,0.2,0.7,0.7
			s-0.2,0.7-0.7,0.7C204.9,205.2,204.6,204.9,204.6,204.5z"/>
		<path class="st0" d="M206.1,213.8c-0.4,0-0.8-0.1-1.1-0.4c-0.6-0.6-0.9-1.6-0.9-3.2c0-1.5,0.2-2.7,0.5-3.6c0-0.5,0.5-0.5,0.7-0.5
			c0.3,0,0.5,0.2,0.5,0.7c-0.3,1.1-0.4,2.4-0.4,4.1c0,1.1,0.3,1.7,0.8,1.7c0.7,0,2.2-0.8,5.2-4.4l0,0l0.6-0.2c0.1,0,0.2,0.1,0.2,0.1
			h0.1l0,0.1c0.1,0.1,0.1,0.3,0.1,0.4c0,0.2-0.2,0.7-1.5,2.2c-1.9,2.1-3.4,3.1-4.7,3.2C206.2,213.8,206.1,213.8,206.1,213.8z
			 M205.3,206.3c-0.5,0-0.5,0.1-0.5,0.3l0,0c-0.3,0.9-0.5,2.1-0.5,3.6c0,1.5,0.3,2.5,0.8,3c0.3,0.3,0.6,0.4,1,0.3
			c1.2-0.1,2.7-1.1,4.5-3.2c1.3-1.4,1.5-1.9,1.5-2c0-0.1,0-0.1,0-0.2c-0.1,0-0.1-0.1-0.1-0.1l-0.4,0.2c-2.4,3-4.2,4.5-5.4,4.5
			c-0.7,0-1-0.7-1-1.9c0-1.7,0.1-3,0.4-4.1C205.6,206.5,205.4,206.3,205.3,206.3z M205.3,205.3c-0.5,0-0.8-0.4-0.8-0.8
			c0-0.6,0.3-0.8,0.8-0.8s0.8,0.3,0.8,0.8C206.1,205.1,205.9,205.3,205.3,205.3z M205.3,203.9c-0.4,0-0.6,0.1-0.6,0.6
			c0,0.3,0.2,0.6,0.6,0.6c0.4,0,0.6-0.1,0.6-0.6C205.9,204.1,205.7,203.9,205.3,203.9z"/>
	</g>
	<g>
		<path class="st0" d="M210.9,213.5c-0.3-0.2-0.4-0.7-0.4-1.3c0-2.3,1.1-4.3,3.3-5.8c0.7-0.4,1.4-0.7,2.2-0.7c0.6,0,1.3,0.2,1.9,0.6
			c0.1,0,0.1,0,0.2,0.1s0.1,0.1,0.1,0.2l-0.1,0.2c-0.2,0.5-0.4,1.3-0.4,2.2c0,0.3,0,0.7,0.1,1.2s0.2,0.8,0.5,1.1s0.7,0.4,1.3,0.4
			c1.4,0,3.4-1.1,6.3-3.4l0.4-0.1c0.3,0,0.4,0.2,0.5,0.6c0,0.2-0.1,0.3-0.2,0.4c-3.1,2.4-5.4,3.6-7.1,3.6c-0.6,0-1.1-0.2-1.5-0.6
			c-0.4-0.4-0.8-0.8-0.9-1.4c-0.2-0.6-0.2-1.2-0.2-1.7c-2.2,3.2-3.9,4.8-5.2,4.8L210.9,213.5z M213.3,211.6c0.7-0.8,1.4-1.6,2.2-2.5
			c0.7-0.9,1.2-1.7,1.6-2.2l-1.1-0.1c-0.6,0-1.1,0.2-1.7,0.5c-1.9,1.5-2.8,3.2-2.8,5c0,0.4,0.1,0.5,0.1,0.5
			C212,212.7,212.6,212.3,213.3,211.6z"/>
		<path class="st0" d="M211.7,214L211.7,214l-0.9-0.4c-0.3-0.2-0.5-0.7-0.5-1.4c0-2.4,1.2-4.4,3.4-5.9c0.6-0.4,1.4-0.7,2.3-0.7
			c0.7,0,1.4,0.2,1.9,0.6c0.1,0,0.1,0,0.3,0.1c0.1,0.1,0.1,0.2,0.1,0.3l0,0.1l-0.1,0.2c-0.2,0.6-0.4,1.4-0.4,2.1
			c0,0.3,0,0.7,0.1,1.2c0.1,0.5,0.2,0.8,0.5,1c0.3,0.3,0.6,0.4,1.2,0.4c1.3,0,3.3-1.1,6.2-3.4l0.1,0l0.4-0.1c0.5,0,0.6,0.3,0.7,0.7
			c0,0.3-0.1,0.4-0.2,0.5c-3.2,2.5-5.5,3.6-7.2,3.6c-0.6,0-1.2-0.2-1.6-0.6c-0.4-0.4-0.8-0.8-0.9-1.5c-0.1-0.4-0.2-0.9-0.2-1.3
			C214.6,212.6,213,214,211.7,214z M211,213.4l0.8,0.4c1.2,0,2.9-1.6,5.1-4.7l0.3-0.4v0.5c0,0.5,0,1.1,0.2,1.7
			c0.1,0.6,0.5,0.9,0.9,1.3c0.4,0.4,0.8,0.6,1.4,0.6c1.6,0,3.9-1.1,7-3.6c0.1-0.1,0.1-0.2,0.1-0.3c-0.1-0.4-0.2-0.5-0.4-0.5
			l-0.3,0.1c-3,2.4-4.9,3.4-6.4,3.4c-0.7,0-1.1-0.1-1.4-0.4c-0.3-0.3-0.4-0.6-0.5-1.2c-0.1-0.5-0.1-0.9-0.1-1.2
			c0-1.1,0.3-1.9,0.4-2.3l0.1-0.2c0,0,0,0,0,0c0,0,0,0-0.1-0.1c0,0-0.1-0.1-0.1-0.1c0,0,0,0,0,0h0l0,0c-0.5-0.4-1.2-0.6-1.8-0.6
			c-0.8,0-1.5,0.3-2.1,0.7c-2.1,1.4-3.2,3.4-3.2,5.7C210.6,212.8,210.8,213.2,211,213.4z M211.6,213L211.6,213
			c-0.1-0.1-0.2-0.2-0.2-0.7c0-1.9,1-3.6,2.9-5.1c0.7-0.3,1.2-0.5,1.8-0.5l1.4,0.1l-0.2,0.2c-0.2,0.2-0.4,0.5-0.6,0.8
			c-0.3,0.4-0.6,0.9-1,1.4c-0.8,0.9-1.5,1.7-2.1,2.4l-0.1,0.1C212.7,212.4,212.1,212.8,211.6,213L211.6,213z M216,206.9
			c-0.5,0-1,0.2-1.6,0.5c-1.8,1.4-2.7,3.1-2.7,4.9c0,0.2,0,0.3,0,0.3c0.4-0.1,0.9-0.5,1.5-1.1l0.1-0.1c0.7-0.8,1.4-1.6,2.1-2.4
			c0.4-0.5,0.7-0.9,1-1.3c0.2-0.2,0.3-0.5,0.5-0.7L216,206.9z"/>
	</g>
	<g>
		<path class="st0" d="M227.2,218c-0.7-0.3-1-0.8-1-1.6c0-1.5,1-3.1,2.9-4.9c-0.3-0.2-0.7-0.3-1.2-0.4c-1.6-0.6-2.3-1.4-2.3-2.4
			c0-0.5,0.2-1.1,0.5-1.8c0.5-1.1,1.2-1.7,2.1-1.7c0.4,0,0.8,0.3,1.1,0.8l0.1,0.2c0,0.2-0.1,0.4-0.3,0.5c-0.4,0-0.6-0.1-0.7-0.3
			c-0.1-0.1-0.1-0.2-0.2-0.2l-0.1,0.1c-0.9,0.5-1.4,1.3-1.4,2.4c0,0.2,0.1,0.4,0.1,0.5c0.1,0.1,0.3,0.3,0.6,0.5s0.7,0.3,1.1,0.5
			s0.9,0.4,1.5,0.7c1.8-1.4,3.3-2.2,4.7-2.5l0.1-0.1c0.2,0,0.3,0.1,0.4,0.4c0,0.2-0.2,0.4-0.5,0.6c-1.1,0.2-2.5,1-4.1,2.2
			c0.4,0.4,0.6,1,0.7,1.8c0,0.9-0.2,1.7-0.7,2.5c-0.4,0.8-0.9,1.4-1.4,1.8c-0.5,0.4-1,0.5-1.5,0.5
			C227.6,218.1,227.4,218.1,227.2,218z M228.8,216.8c0.4-0.3,0.8-0.8,1.1-1.4c0.3-0.7,0.5-1.3,0.5-2.1c0-0.5-0.1-0.8-0.4-1.1
			c-1.9,1.6-2.8,2.9-2.8,4.1c0,0.6,0.2,0.9,0.6,0.9C228.1,217.2,228.4,217.1,228.8,216.8z"/>
		<path class="st0" d="M227.7,218.2c-0.1,0-0.3,0-0.6-0.1c-0.7-0.3-1.1-0.9-1.1-1.7c0-1.5,0.9-3,2.8-4.9c-0.2-0.1-0.6-0.2-1-0.3
			c-1.6-0.6-2.4-1.4-2.4-2.5c0-0.5,0.2-1,0.5-1.9c0.5-1.2,1.3-1.8,2.2-1.8c0.4,0,0.9,0.3,1.2,0.9l0.1,0.3c0,0.3-0.1,0.5-0.4,0.6
			l-0.1,0c-0.4,0-0.7-0.1-0.8-0.4c0,0-0.1-0.1-0.1-0.1l0,0c-0.9,0.5-1.3,1.3-1.3,2.3c0,0.1,0,0.2,0.1,0.3c0,0.1,0,0.1,0,0.1
			c0.1,0.1,0.3,0.3,0.5,0.4c0.2,0.1,0.4,0.2,0.6,0.3c0.2,0.1,0.3,0.1,0.5,0.2c0.2,0.1,0.4,0.2,0.6,0.3c0.2,0.1,0.5,0.2,0.8,0.4
			c1.8-1.4,3.3-2.2,4.6-2.5l0.1-0.1h0.1c0.3,0,0.4,0.2,0.5,0.5l0,0c0,0.2-0.2,0.5-0.6,0.7l-0.1,0c-1,0.2-2.3,0.9-3.9,2.1
			c0.3,0.4,0.5,0.9,0.6,1.8c0,1-0.2,1.8-0.7,2.6c-0.4,0.7-0.9,1.4-1.4,1.8C228.8,218.1,228.3,218.2,227.7,218.2z M228.2,205.3
			c-0.8,0-1.5,0.5-2,1.6c-0.3,0.8-0.5,1.3-0.5,1.7c0,1,0.7,1.7,2.2,2.3c0.5,0.1,0.9,0.2,1.2,0.4l0.1,0.1l-0.1,0.1
			c-1.9,1.8-2.9,3.4-2.9,4.8c0,0.8,0.3,1.2,0.9,1.5l0,0c0.2,0.1,0.3,0.1,0.4,0.1c0.6,0,1-0.1,1.4-0.5c0.5-0.4,1-1,1.4-1.8
			c0.5-0.8,0.7-1.5,0.7-2.4c-0.1-0.8-0.3-1.3-0.7-1.7l-0.1-0.1l0.1-0.1c1.7-1.3,3.1-2,4.1-2.2c0.3-0.2,0.4-0.4,0.4-0.4
			c-0.1-0.2-0.1-0.3-0.2-0.3l-0.1,0.1l0,0c-1.4,0.3-2.9,1.1-4.6,2.5l-0.1,0.1l-0.1,0c-0.3-0.2-0.6-0.3-0.9-0.4
			c-0.2-0.1-0.4-0.2-0.6-0.3c-0.2-0.1-0.3-0.1-0.5-0.2c-0.2-0.1-0.4-0.2-0.6-0.3c-0.3-0.2-0.5-0.4-0.6-0.5l0,0l0-0.1
			c0,0,0-0.1,0-0.1c0-0.1-0.1-0.2-0.1-0.4c0-1.1,0.5-2,1.5-2.5l0.1-0.1h0.1c0.1,0,0.2,0.1,0.2,0.2c0,0,0,0.1,0.1,0.1l0,0
			c0.1,0.1,0.2,0.2,0.5,0.2c0.1-0.1,0.2-0.2,0.2-0.3l-0.1-0.2C228.9,205.6,228.5,205.3,228.2,205.3z M227.8,217.3
			c-0.3,0-0.7-0.2-0.7-1c0-1.2,0.9-2.6,2.9-4.2l0.1-0.1l0.1,0.1c0.3,0.3,0.4,0.6,0.4,1.2c0,0.8-0.2,1.4-0.5,2.2
			c-0.3,0.6-0.7,1.1-1.1,1.5C228.5,217.2,228.2,217.3,227.8,217.3z M230,212.4c-1.8,1.5-2.6,2.8-2.6,3.9c0,0.8,0.3,0.8,0.5,0.8
			c0.3,0,0.6-0.1,0.9-0.4l0,0c0.4-0.3,0.8-0.8,1.1-1.4c0.3-0.7,0.5-1.3,0.5-2C230.3,212.9,230.2,212.6,230,212.4z"/>
	</g>
	<g>
		<path class="st0" d="M240.9,229.8c0.1-0.4,0.2-0.5,0.5-0.5c0.1,0,0.1,0,0.2,0.1c0.1,0.1,0.2,0.1,0.3,0.1c0.3,0,0.6-0.2,0.9-0.7
			c1.8-2.9,3.1-9.4,3.8-19.6l0,0l-0.5-0.5c-0.6,0.2-1.2,0.3-1.7,0.3c-0.3,0-0.6-0.1-0.9-0.1c-0.3-0.1-0.6-0.3-0.9-0.6
			c-0.3-0.3-0.5-0.9-0.5-1.6c0-1.1,0.4-1.7,1.1-1.7c0.7,0,1.9,0.9,3.3,2.6c0.1,0,0.2-0.1,0.3-0.1c0-1.1,0.1-2.2,0.1-3.2
			c0.1-1.6,0.1-3.1,0.1-4.5c0-3.5-0.2-6.9-0.5-10.2s-0.9-5.5-1.7-6.6c-0.1-0.1-0.2-0.3-0.3-0.3s-0.2-0.1-0.3-0.1s-0.1,0-0.2,0.1
			c-0.1,0-0.1,0-0.2,0c-0.1,0-0.1,0-0.2-0.1c-0.1,0-0.2-0.1-0.2-0.2c-0.1-0.1-0.1-0.1-0.1-0.2c0-0.4,0.3-0.6,0.9-0.6
			c0.1,0,0.2,0,0.4,0.1c0.2,0,0.5,0.3,0.9,0.7c1.5,2.1,2.2,7.2,2.4,15.5c1.3-4.5,3-8.1,5.3-10.7s4.7-4.4,7.2-5.2
			c1.3-0.5,2.5-0.7,3.6-0.7c1.6,0,2.9,0.5,3.9,1.6c0.6,0.6,1,1.6,1,3.1c0,1.2-0.5,2.8-1.5,4.8c-2,3.4-4.9,6.8-8.8,10.2
			s-7.6,5.8-10.9,7.3l-0.1,0.8c2.4,2.8,4.5,5.1,6.4,7c2.1,2.1,4.3,4,6.6,5.6s4.8,2.3,7.2,2.3c3.3,0,6.2-1.7,9-5.1
			c0.1-0.1,0.2-0.2,0.4-0.2c0.1,0,0.2,0.1,0.4,0.1c0.1,0.1,0.2,0.2,0.2,0.4c0,0.1,0,0.2-0.1,0.3c-2.9,3.7-6.2,5.5-9.8,5.5
			c-4-0.2-7.7-1.9-11.1-5c-3.5-3.1-6.5-6.2-9-9.3c0,0,0-0.1-0.1-0.1c0,0-0.1,0-0.1-0.1c-0.3,4.1-0.7,7.9-1.4,11.5
			c-0.6,3.6-1.5,6.1-2.6,7.7c-0.6,0.7-1.2,1.1-1.8,1.1C241.2,230.4,240.9,230.2,240.9,229.8z M245.4,207.7c-1.2-1.3-1.9-1.9-2.2-1.9
			l0,0c-0.1,0.2-0.1,0.4-0.1,0.8c0,0.4,0.1,0.6,0.2,0.8c0.1,0.2,0.3,0.3,0.5,0.4c0.2,0,0.4,0.1,0.6,0.1
			C244.7,207.8,245,207.8,245.4,207.7z M258.1,199.8c3.7-3.2,6.6-6.5,8.5-9.8c0.9-1.7,1.4-3.2,1.4-4.4c0-0.9-0.3-1.7-0.8-2.4
			c-0.8-0.8-1.9-1.2-3.2-1.2c-1,0-2,0.2-3.2,0.6c-2.9,1-5.6,3.3-8.1,6.8s-4.1,8.4-4.8,14.7c0,0.7,0,1.7-0.1,2.8
			C250.9,205.4,254.4,203,258.1,199.8z"/>
		<path class="st0" d="M241.8,230.9L241.8,230.9L241.8,230.9c-0.7-0.4-1-0.7-1-1.1l0,0c0.1-0.4,0.2-0.6,0.6-0.6c0.1,0,0.2,0,0.3,0.1
			c0.1,0.1,0.1,0.1,0.2,0.1c0.3,0,0.5-0.2,0.8-0.6c1.8-2.9,3.1-9.5,3.8-19.5l-0.4-0.4c-0.8,0.2-1.5,0.3-2.1,0.2c-0.1,0-0.3,0-0.4,0
			l0,0c-0.3-0.1-0.6-0.3-1-0.6c-0.3-0.3-0.5-1-0.5-1.7c0-1.2,0.5-1.8,1.2-1.8c0.8,0,2,0.9,3.4,2.6c0,0,0,0,0,0c0,0,0,0,0.1,0
			c0-0.5,0-1.1,0.1-1.6c0-0.5,0-1,0-1.5c0.1-1.6,0.1-3.1,0.1-4.5c0-3.2-0.2-6.5-0.5-10.2c-0.3-3.2-0.9-5.4-1.7-6.5
			c0,0-0.1-0.1-0.1-0.1c0,0-0.1-0.1-0.1-0.1c0,0,0,0,0,0c-0.1,0-0.1,0-0.2-0.1c0,0-0.1,0-0.1,0c0,0,0,0,0,0c0,0,0,0-0.1,0.1l0,0
			h-0.3c-0.1,0-0.2,0-0.3-0.1c-0.1,0-0.2-0.1-0.3-0.3c-0.1-0.1-0.1-0.1-0.1-0.3c0-0.3,0.2-0.7,1-0.7c0.1,0,0.2,0,0.4,0.1
			c0.2,0,0.5,0.3,1,0.7c1.4,2,2.2,6.6,2.4,14.7c1.3-4.3,3-7.5,5.1-9.9c2.4-2.7,4.8-4.5,7.3-5.2c1.2-0.5,2.4-0.7,3.6-0.7
			c1.7,0,3,0.5,4,1.6c0.7,0.7,1,1.8,1,3.2c0,1.2-0.5,2.9-1.5,4.9c-2,3.5-5,6.9-8.8,10.2c-3.7,3.2-7.4,5.7-10.9,7.3l-0.1,0.7
			c2.4,2.8,4.5,5.1,6.4,6.9c2.2,2.2,4.4,4.1,6.6,5.6c2.1,1.5,4.6,2.3,7.1,2.3c3.2,0,6.1-1.7,8.9-5c0.1-0.1,0.3-0.3,0.5-0.3
			c0.1,0,0.1,0,0.2,0c0.1,0,0.1,0.1,0.2,0.1h0.1l0,0c0.1,0.1,0.2,0.2,0.2,0.5c0,0.1,0,0.3-0.1,0.4c-2.9,3.7-6.2,5.5-9.9,5.5
			c-4-0.2-7.7-1.9-11.2-5c-3.5-3.1-6.5-6.2-9-9.3c-0.3,4.6-0.8,8.1-1.4,11.2c-0.6,3.5-1.5,6.1-2.6,7.8
			C243,230.6,242.4,230.9,241.8,230.9z M241,229.8c0,0.3,0.2,0.5,0.8,0.8c0.5,0,1.1-0.4,1.7-1c1.1-1.6,2-4.2,2.6-7.6
			c0.6-3.2,1-6.7,1.4-11.5l0.3,0c0,0,0,0,0,0c0.1,0,0.2,0.1,0.2,0.2c2.5,3.1,5.5,6.2,9,9.3c3.4,3.1,7.1,4.8,11,5
			c3.6,0,6.8-1.8,9.7-5.4c0.1-0.1,0.1-0.1,0.1-0.2c0-0.1,0-0.2-0.1-0.3c-0.1,0-0.2,0-0.3-0.1c0,0-0.1,0-0.1,0
			c-0.1,0-0.2,0.1-0.3,0.2c-2.8,3.5-5.8,5.1-9.1,5.1c-2.6,0-5.1-0.8-7.3-2.3c-2.2-1.5-4.4-3.4-6.6-5.6c-1.9-1.9-4-4.2-6.4-7l0,0
			l0.1-0.9l0.1,0c3.5-1.6,7.1-4,10.9-7.3c3.8-3.3,6.8-6.7,8.8-10.2c1-2,1.5-3.6,1.5-4.7c0-1.3-0.3-2.4-1-3c-1-1-2.2-1.6-3.8-1.6
			c-1.2,0-2.4,0.2-3.5,0.7c-2.4,0.8-4.8,2.5-7.1,5.2c-2.2,2.5-3.9,6-5.3,10.6l-0.3,0.9l0-0.9c-0.2-8.5-1-13.4-2.4-15.4
			c-0.3-0.3-0.6-0.6-0.8-0.6l-0.1,0c-0.2-0.1-0.2-0.1-0.3-0.1c-0.8,0-0.8,0.3-0.8,0.5c0,0,0,0,0,0c0,0,0,0,0.1,0.1l0,0v0.1
			c0,0,0,0.1,0.1,0.1h0.1l0,0c0,0,0.1,0.1,0.1,0.1c0,0,0,0,0,0h0.1c0.1-0.1,0.1-0.1,0.3-0.1c0.1,0,0.2,0,0.2,0.1c0,0,0.1,0,0.1,0
			c0.1,0,0.2,0.1,0.3,0.2c0,0,0.1,0.1,0.1,0.1c0.9,1.2,1.4,3.5,1.7,6.7c0.3,3.7,0.5,7,0.5,10.2c0,1.4,0,2.9-0.1,4.5c0,0.5,0,1,0,1.5
			c0,0.5-0.1,1.1-0.1,1.7v0.1h-0.1c0,0-0.1,0-0.1,0c-0.1,0-0.1,0.1-0.2,0.1h-0.1l0-0.1c-1.3-1.6-2.5-2.5-3.2-2.5c-0.8,0-1,1-1,1.6
			c0,0.6,0.2,1.2,0.5,1.5c0.3,0.3,0.6,0.5,0.8,0.6c0.2,0,0.3,0,0.4,0.1c0.1,0,0.3,0,0.4,0c0.5,0,1.1-0.1,1.7-0.3l0.1,0l0.6,0.6
			l0,0.1c-0.7,10.1-2,16.7-3.8,19.7c-0.3,0.5-0.6,0.8-1,0.8c-0.1,0-0.3,0-0.4-0.1c0,0-0.1-0.1-0.1-0.1c0,0,0,0,0,0
			C241.2,229.4,241.1,229.5,241,229.8z M244.4,208L244.4,208c-0.1,0-0.2,0-0.4-0.1c-0.1,0-0.2,0-0.3,0l-0.1,0
			c-0.2-0.1-0.4-0.2-0.6-0.5c-0.1-0.2-0.2-0.4-0.2-0.9c0-0.4,0-0.6,0.1-0.9l0-0.1h0.1c0.3,0,0.7,0.2,2.3,1.9l0.2,0.2l-0.2,0.1
			c-0.2,0-0.4,0.1-0.5,0.1C244.7,208,244.6,208,244.4,208L244.4,208z M243.8,207.7c0.1,0,0.2,0,0.3,0.1c0.1,0,0.2,0,0.2,0
			c0.2-0.1,0.3-0.1,0.5-0.1c0.1,0,0.2,0,0.2,0c-1.1-1.2-1.6-1.6-1.8-1.7c0,0.1,0,0.3,0,0.6c0,0.4,0.1,0.5,0.2,0.7
			C243.5,207.5,243.7,207.6,243.8,207.7z M247.6,207.1l0-0.2c0.1-1.1,0.1-2.1,0.1-2.8c0.7-6.3,2.3-11.3,4.8-14.8
			c2.5-3.6,5.3-5.9,8.2-6.9c1.3-0.4,2.3-0.6,3.2-0.6c1.3,0,2.5,0.4,3.3,1.2c0.6,0.8,0.8,1.6,0.8,2.5c0,1.2-0.5,2.7-1.4,4.5
			c-1.9,3.3-4.7,6.6-8.5,9.8l-0.1-0.1l0.1,0.1c-3.7,3.2-7.2,5.6-10.3,7.1L247.6,207.1z M264,182.1c-1,0-1.9,0.2-3.2,0.6
			c-2.8,1-5.5,3.2-8,6.7c-2.5,3.5-4.1,8.4-4.8,14.6c0,0.7,0,1.5-0.1,2.5c3.1-1.5,6.5-3.9,10-7c3.8-3.3,6.6-6.5,8.5-9.8
			c0.9-1.7,1.4-3.2,1.4-4.3c0-0.8-0.3-1.6-0.8-2.3C266.3,182.5,265.3,182.1,264,182.1z"/>
	</g>
	<g>
		<path class="st0" d="M266,214.2c-1.1,0-1.6-1.3-1.6-3.9c0-3,0.6-4.5,1.7-4.5c0.4,0,0.6,0.1,0.7,0.3s0,0.3,0,0.4
			c0,0.3-0.2,0.4-0.7,0.4c-0.5,0.5-0.7,1.7-0.7,3.6c0,1.8,0.2,2.7,0.7,2.7c0.6,0,1.3-1.4,2.3-4.3c0.3-1.2,0.6-1.9,1.1-2
			c0.4,0,0.6,0.4,0.8,1.2c0.6,2.3,1.3,3.4,2.2,3.4c1.2,0,2.7-1.1,4.6-3.2c0.1-0.1,0.2-0.1,0.4-0.1c0.3,0,0.5,0.2,0.5,0.5v0.1
			c0,0.1-0.1,0.2-0.2,0.3c-2,2.3-3.8,3.5-5.2,3.5c-1.6,0-2.6-1.2-3.2-3.7C268.6,212.4,267.5,214.2,266,214.2L266,214.2L266,214.2z"
			/>
		<path class="st0" d="M266,214.3c-1.2,0-1.7-1.3-1.7-4c0-3.1,0.6-4.6,1.8-4.6c0.4,0,0.7,0.1,0.8,0.4c0.1,0.2,0.1,0.3,0,0.4
			c0,0,0,0,0,0.1c0,0.5-0.5,0.5-0.8,0.5c-0.4,0.5-0.6,1.6-0.6,3.5c0,1.7,0.2,2.6,0.6,2.6c0.6,0,1.5-2.4,2.2-4.2
			c0.3-1.2,0.6-2,1.2-2.1c0,0,0,0,0,0c0.6,0,0.8,0.6,1,1.3c0.6,2.2,1.3,3.3,2.1,3.3c1.1,0,2.5-1,4.5-3.2c0.1-0.1,0.3-0.1,0.5-0.1
			c0.4,0,0.6,0.3,0.6,0.6v0.1c0,0.2-0.1,0.3-0.2,0.4c-2,2.3-3.8,3.5-5.3,3.5c-1.5,0-2.6-1-3.2-3.3
			C268.6,212.8,267.5,214.3,266,214.3z M266.1,205.9c-1,0-1.6,1.5-1.6,4.4c0,2.5,0.5,3.8,1.5,3.8c1.4,0,2.5-1.7,3.3-5.2l0.1-0.6
			l0.1,0.6c0.6,2.5,1.6,3.6,3.1,3.6c1.4,0,3.1-1.2,5.1-3.5c0.1-0.1,0.2-0.2,0.2-0.2v-0.1c0-0.2-0.1-0.4-0.4-0.4
			c-0.2,0-0.2,0-0.3,0.1c-2,2.2-3.5,3.2-4.7,3.2c-1,0-1.7-1.1-2.3-3.5c-0.2-0.8-0.4-1.1-0.7-1.1c-0.4,0.1-0.6,0.6-1,1.9
			c-1.1,3.2-1.8,4.4-2.4,4.4c-0.6,0-0.8-0.8-0.8-2.8c0-2,0.2-3.2,0.7-3.7l0,0h0.1c0.6,0,0.6-0.1,0.6-0.3c0-0.1,0-0.1,0-0.1
			c0-0.1,0-0.1,0-0.2C266.6,206.1,266.5,205.9,266.1,205.9z"/>
	</g>
	<g>
		<path class="st0" d="M276.9,210.6c0-2.1,0.4-3.3,1.2-3.4c0.3,0,0.5,0.1,0.5,0.3s0,0.3,0,0.4c0,0.1-0.1,0.3-0.4,0.4
			c-0.3,0.2-0.4,1.1-0.4,2.6c0,0.5,0,1.1,0.1,1.6l0.5-1.1c1.2-3,1.8-4.6,1.8-4.6s0.4-0.4,1-1.1c0.5,0,0.8,0.4,1,1.1
			c0.4,1.4,0.5,2.7,0.5,3.9c1.1-2.5,2.2-3.7,3.1-3.7c0.6,0,1,0.6,1.2,1.9c0.3,1.7,0.8,2.5,1.5,2.5c1,0,2.8-1,5.3-3.1
			c0.1-0.1,0.2-0.1,0.4-0.1c0.1,0,0.2,0.1,0.3,0.2s0.2,0.2,0.2,0.3s-0.1,0.2-0.2,0.4c-2.6,2.2-4.5,3.4-5.9,3.4c-0.9,0-1.6-0.5-2-1.5
			c-0.2-0.6-0.5-1.4-0.7-2.4l-0.2-0.4c-0.4,0-1,1-2,3c-0.4,1.1-0.8,1.6-1,1.6c-0.5,0-0.7-0.2-0.8-0.7c-0.1-0.4-0.3-1.6-0.5-3.5
			l-0.2-1.6c-0.5,0.9-1,2.1-1.5,3.6c-0.8,2.2-1.4,3.4-1.8,3.5C277.3,214,276.9,212.9,276.9,210.6z"/>
		<path class="st0" d="M277.9,214.2L277.9,214.2c-0.8-0.1-1.1-1.4-1.1-3.6c0-2.2,0.4-3.4,1.3-3.5c0,0,0,0,0,0c0.6,0,0.7,0.3,0.7,0.4
			v0.4c0,0.2-0.1,0.4-0.5,0.5c-0.3,0.3-0.3,1.9-0.3,2.5c0,0.3,0,0.7,0,1.1l0.3-0.7c1.2-3,1.8-4.6,1.8-4.6l0-0.1c0,0,0.4-0.4,1-1.1
			l0,0h0.1c0.7,0,1,0.7,1.1,1.2c0.3,1,0.5,2.1,0.5,3.3c1-2.1,2-3.2,3-3.2c0.7,0,1.1,0.7,1.3,2c0.3,1.6,0.7,2.4,1.4,2.4
			c1,0,2.9-1.1,5.2-3.1c0.1-0.1,0.3-0.1,0.5-0.1c0.2,0,0.3,0.1,0.4,0.2c0.1,0.1,0.2,0.2,0.2,0.4c0,0.1-0.1,0.2-0.1,0.3
			c0,0-0.1,0.1-0.1,0.2l0,0c-2.8,2.4-4.6,3.4-6,3.4c-1,0-1.7-0.5-2.1-1.6l-0.1-0.3c-0.2-0.6-0.4-1.3-0.6-2.1l-0.1-0.3
			c-0.4,0.2-1.3,2-1.8,2.9c-0.4,1-0.8,1.7-1.1,1.7c-0.6,0-0.8-0.2-0.9-0.8c-0.1-0.4-0.3-1.7-0.5-3.5l-0.1-1.2
			c-0.4,0.8-0.9,1.9-1.3,3.2C278.7,213.7,278.2,214.2,277.9,214.2L277.9,214.2z M278.1,207.3c-0.7,0.1-1.1,1.2-1.1,3.3
			c0,2,0.3,3.2,0.9,3.4c0.2-0.1,0.7-0.7,1.7-3.4c0.5-1.5,1-2.7,1.5-3.6l0.2-0.4l0.3,2c0.2,2,0.4,3.1,0.5,3.5
			c0.1,0.5,0.2,0.6,0.7,0.6c0.1,0,0.4-0.3,0.9-1.5c1.2-2.3,1.7-3.1,2.1-3.1h0.1l0.3,0.5c0.2,0.8,0.4,1.5,0.6,2.1l0.1,0.3
			c0.4,0.9,1,1.4,1.9,1.4c1.3,0,3-1,5.8-3.3c0-0.1,0.1-0.1,0.1-0.2s0.1-0.1,0.1-0.1c0,0-0.1-0.1-0.2-0.2c-0.1-0.1-0.2-0.2-0.2-0.2
			c-0.2,0-0.2,0-0.3,0.1c-2.4,2.1-4.3,3.1-5.4,3.1c-0.8,0-1.3-0.9-1.6-2.6c-0.2-1.2-0.5-1.8-1.1-1.8c-0.9,0-2,1.3-3,3.6l-0.3,0.6
			v-0.7c0-1.5-0.2-2.7-0.5-3.9c-0.2-0.7-0.4-1-0.8-1c-0.5,0.6-0.9,0.9-0.9,1c-0.1,0.2-0.7,1.8-1.8,4.6l-0.7,1.5l-0.1-0.4
			c-0.1-0.5-0.1-1.1-0.1-1.6c0-1.7,0.1-2.5,0.5-2.7l0,0c0.2-0.1,0.3-0.2,0.3-0.3v-0.4C278.5,207.4,278.2,207.3,278.1,207.3z"/>
	</g>
</g>
</svg>
