<svg xmlns="http://www.w3.org/2000/svg" width="161.4" height="57.1" viewBox="0 0 161.4 57.1">
  <g id="LOGO__x7C__xA0_TILRETTET_M" transform="translate(-133.4 -173.8)">
    <g id="Group_46" data-name="Group 46">
      <path id="Path_1" data-name="Path 1" d="M174.6,193.8c-1.5-9.9-3.7-14.9-6.5-15.1-1.8.3-3.4,2.2-4.9,5.6a72.553,72.553,0,0,0-4,11.7c-1.1,4.4-2,8.2-2.6,11.6-.2-12.4-1.3-21.5-3.4-27.3,0-.1-.1-.3-.1-.4-.1-.1-1.9-5.9-5-5.9H148c-2.2,0-4.2,2.2-6.1,6.6a105.67,105.67,0,0,0-6.5,23.6c0,.2-.2.8-.2,1-.3,2-1.4,10.3-1.4,10.4-.2,2.2-.3,4.3-.3,6.2q0,6.6,1.8,6.6c.2,0,.4-.2.4-.6,0-.2,0-.3-.1-.4-.7-.7-1-2.6-1-5.8,0-1.8,0-3.8.2-5.8.1-.8.7-7,1.3-10.1a2.269,2.269,0,0,0,.1-.4c.6-3.8,1.5-7.9,2.6-12.2,3.3-12.1,6.4-18.2,9.3-18.2h.2c2.4.1,3.9,4.9,3.9,4.9a27.972,27.972,0,0,1,1,3.7,124.935,124.935,0,0,1,2.6,24c.1,3.7.3,5.6.5,5.6.4,0,.6-.2.6-.5,1.9-10.7,4.1-19.5,6.7-26.3,1.7-4.5,3.4-6.7,5-6.7,1.8,0,3.6,4.7,5.3,14.1a133.84,133.84,0,0,1,2,22.3c0,7-.7,10.8-2,11.4-.3,0-.4.2-.4.6a.458.458,0,0,0,.5.4h.1c1.4-.6,2.3-2.3,2.5-5.3s.3-5.5.3-7.5A153.931,153.931,0,0,0,174.6,193.8Z" fill="#fff8f4"/>
      <path id="Path_2" data-name="Path 2" d="M174.1,228.5H174a.562.562,0,0,1-.6-.5c0-.2,0-.7.5-.7.9-.4,1.9-2.8,1.9-11.3a138.649,138.649,0,0,0-2-22.3c-2.1-11.6-4-14-5.2-14-1.6,0-3.2,2.3-4.9,6.6-2.5,6.7-4.7,15.3-6.7,26.3,0,.4-.3.6-.7.6-.2,0-.5,0-.6-5.7a128.688,128.688,0,0,0-2.6-24,19.171,19.171,0,0,0-1-3.7c0-.1-1.5-4.7-3.8-4.8h-.2c-2.8,0-5.9,6.1-9.2,18.1-1.2,4.6-2,8.6-2.6,12.2,0,.1-.1.3-.1.4-.5,2.5-1,7.1-1.2,9.1a4.592,4.592,0,0,0-.1,1c-.2,2-.2,4-.2,5.8,0,3.2.3,5,1,5.7a.749.749,0,0,1,.1.5c0,.5-.3.7-.5.7-1.3,0-1.9-2.2-1.9-6.7,0-1.9.1-4,.3-6.2,0-.1,1.1-8.7,1.4-10.4a1.087,1.087,0,0,1,.1-.5,4.331,4.331,0,0,1,.1-.5,109.839,109.839,0,0,1,6.5-23.7c1.9-4.5,4-6.7,6.2-6.7h.1c1.9,0,3.6,1.9,5,5.7a.31.31,0,0,1,.1.2h0v.2a.349.349,0,0,0,.1.2c2,5.6,3.1,14,3.4,25.9.6-3.2,1.5-6.8,2.3-10.2a76.783,76.783,0,0,1,4-11.7c1.6-3.5,3.2-5.4,5-5.7,2.9.2,5.2,5.3,6.7,15.2a160.567,160.567,0,0,1,2.3,21.8q0,3-.3,7.5c-.2,3.2-1,5-2.6,5.6Zm-.2-1c-.1,0-.3,0-.3.5,0,.1.1.3.4.3h.1c1.4-.6,2.2-2.4,2.4-5.2q.3-4.5.3-7.5a160.565,160.565,0,0,0-2.3-21.8h0c-1.5-9.7-3.6-14.8-6.4-15-1.7.3-3.2,2.1-4.8,5.5a76.783,76.783,0,0,0-4,11.7c-1,3.9-2,8-2.6,11.6h-.3c-.2-12.6-1.3-21.5-3.4-27.3h0v-.2c0-.1,0-.1-.1-.2a.774.774,0,0,0-.1-.3c-1.8-4.6-3.6-5.5-4.8-5.5h0c-2.1,0-4.1,2.1-6,6.5a108.818,108.818,0,0,0-6.5,23.6,1.087,1.087,0,0,1-.1.5,4.331,4.331,0,0,1-.1.5c-.3,2-1.4,10.2-1.4,10.4-.2,2.2-.3,4.3-.3,6.2,0,5.3.9,6.5,1.7,6.5.1,0,.3-.2.3-.5,0-.2,0-.2-.1-.3-.7-.7-1-2.5-1-5.9,0-1.8,0-3.8.2-5.8,0-.2.1-.5.1-1,.2-2,.7-6.6,1.2-9.1,0-.2.1-.3.1-.4.6-3.6,1.4-7.6,2.6-12.2,3.4-12.3,6.4-18.3,9.4-18.3h.2c2.5.1,4,4.8,4,5a19.171,19.171,0,0,1,1,3.7,127.734,127.734,0,0,1,2.6,24,31.006,31.006,0,0,0,.4,5.5.366.366,0,0,0,.4-.4c2-11.1,4.2-19.7,6.7-26.4,1.7-4.5,3.4-6.8,5.1-6.8,1.9,0,3.7,4.8,5.4,14.2a138.649,138.649,0,0,1,2,22.3c.1,7.1-.6,11-2,11.6Z" fill="#fff8f4"/>
    </g>
    <g id="Group_47" data-name="Group 47">
      <path id="Path_3" data-name="Path 3" d="M180.1,213.5c-.3-.2-.4-.7-.4-1.3a6.854,6.854,0,0,1,3.3-5.8,4.395,4.395,0,0,1,2.2-.7,3.534,3.534,0,0,1,1.9.6c.1,0,.1,0,.2.1s.1.1.1.2l-.1.2a6.174,6.174,0,0,0-.4,2.2,5.739,5.739,0,0,0,.1,1.2,1.881,1.881,0,0,0,.5,1.1,1.7,1.7,0,0,0,1.3.4c1.4,0,3.4-1.1,6.3-3.4l.4-.1c.3,0,.4.2.5.6a.52.52,0,0,1-.2.4c-3.1,2.4-5.4,3.6-7.1,3.6a2.035,2.035,0,0,1-1.5-.6,2.629,2.629,0,0,1-.9-1.4,5.245,5.245,0,0,1-.2-1.7c-2.2,3.2-3.9,4.8-5.2,4.8Zm2.4-1.9c.7-.8,1.4-1.6,2.2-2.5.7-.9,1.2-1.7,1.6-2.2l-1.1-.1a3.686,3.686,0,0,0-1.7.5,6.364,6.364,0,0,0-2.8,5c0,.4.1.5.1.5A4.409,4.409,0,0,0,182.5,211.6Z" fill="#fff8f4"/>
      <path id="Path_4" data-name="Path 4" d="M180.9,214h0l-.9-.4a1.668,1.668,0,0,1-.5-1.4,7,7,0,0,1,3.4-5.9,4.176,4.176,0,0,1,2.3-.7,3.077,3.077,0,0,1,1.9.6c.1,0,.1,0,.3.1a.367.367,0,0,1,.1.3v.1l-.1.2a7.117,7.117,0,0,0-.4,2.1,5.739,5.739,0,0,0,.1,1.2c.1.5.2.8.5,1a1.461,1.461,0,0,0,1.2.4c1.3,0,3.3-1.1,6.2-3.4h.1l.4-.1h0c.5,0,.6.3.7.7a.588.588,0,0,1-.2.5c-3.2,2.5-5.5,3.6-7.2,3.6a2.271,2.271,0,0,1-1.6-.6,2.551,2.551,0,0,1-.9-1.5,5.852,5.852,0,0,1-.2-1.3C183.8,212.6,182.2,214,180.9,214Zm-.7-.6.8.4c1.2,0,2.9-1.6,5.1-4.7l.3-.4v.5a5.245,5.245,0,0,0,.2,1.7,2.072,2.072,0,0,0,.9,1.3,1.816,1.816,0,0,0,1.4.6c1.6,0,3.9-1.1,7-3.6.1-.1.1-.1.1-.3-.1-.4-.2-.5-.4-.5l-.3.1c-3,2.4-4.9,3.4-6.4,3.4a1.809,1.809,0,0,1-1.4-.4,1.911,1.911,0,0,1-.5-1.2,5.739,5.739,0,0,1-.1-1.2,7.973,7.973,0,0,1,.4-2.3l.1-.2h0l-.1-.1-.1-.1h0a3,3,0,0,0-1.8-.6,3.771,3.771,0,0,0-2.1.7,6.691,6.691,0,0,0-3.2,5.7A.973.973,0,0,0,180.2,213.4Zm.6-.4h0c-.1-.1-.2-.2-.2-.7,0-1.9,1-3.6,2.9-5.1a4.463,4.463,0,0,1,1.8-.5l1.4.1-.2.2a5.548,5.548,0,0,0-.6.8,11.321,11.321,0,0,1-1,1.3c-.8.8-1.4,1.6-2.1,2.4l-.1.2a7.1,7.1,0,0,1-1.9,1.3Zm4.4-6.1a3.675,3.675,0,0,0-1.6.5,6.2,6.2,0,0,0-2.7,4.9v.3a3.968,3.968,0,0,0,1.5-1.1l.1-.2c.7-.7,1.3-1.5,2.1-2.3.4-.5.7-.9,1-1.3.2-.2.3-.5.5-.7Z" fill="#fff8f4"/>
    </g>
    <g id="Group_48" data-name="Group 48">
      <path id="Path_5" data-name="Path 5" d="M195.8,214.9c-.5-.3-.8-2.2-.8-5.6,0-3.2.3-4.7,1-4.7a.53.53,0,0,1,.6.6.781.781,0,0,1-.4.4,8.862,8.862,0,0,0-.3,2.9c0,1.4.1,2.8.1,4l.2-1.2c.6-3.5,1.3-5.3,2.2-5.3.4,0,.8.3,1,1,.8,1.3,1.6,1.9,2.6,1.9a5.214,5.214,0,0,0,2.2-.6.666.666,0,0,1,.7.5.55.55,0,0,1-.3.5,7.8,7.8,0,0,1-2.6.7c-1.5,0-2.6-.8-3.5-2.5l-.2-.2-1.1,4.3a14.693,14.693,0,0,1-.7,2.9,1.44,1.44,0,0,1-.6.7Z" fill="#fff8f4"/>
      <path id="Path_6" data-name="Path 6" d="M195.8,215.4l-.1-.4c-.5-.4-.8-2.3-.8-5.7s.3-4.8,1.1-4.8a.632.632,0,0,1,.7.7v.1a.781.781,0,0,1-.4.4,8.544,8.544,0,0,0-.3,2.8,14.768,14.768,0,0,0,.1,2.1v.4c.6-3.6,1.3-5.1,2.3-5.1.5,0,.9.4,1.1,1.1.8,1.3,1.5,1.8,2.5,1.8a4.5,4.5,0,0,0,2.1-.6h.1a.76.76,0,0,1,.8.6h0a.548.548,0,0,1-.4.6,7.21,7.21,0,0,1-2.7.7c-1.5,0-2.7-.8-3.6-2.6h0l-1,4.1a17.082,17.082,0,0,1-.7,2.9,1.853,1.853,0,0,1-.7.8Zm.2-10.7c-.6,0-.9,1.5-.9,4.6,0,4.7.6,5.4.7,5.5h0l.1.2a2.181,2.181,0,0,0,.4-.5,17.082,17.082,0,0,0,.7-2.9l1.2-4.5.4.4c.9,1.7,1.9,2.4,3.4,2.4a6.318,6.318,0,0,0,2.5-.7c.1-.1.2-.2.2-.3a.51.51,0,0,0-.5-.4,5.215,5.215,0,0,1-2.2.6c-1,0-1.9-.6-2.7-2h0q-.3-.9-.9-.9c-.8,0-1.5,1.7-2.1,5.2l-.2,1.2h-.3v-1.8c0-.7-.1-1.4-.1-2.2a10.062,10.062,0,0,1,.3-3h0c.2-.1.2-.2.3-.3Q196.45,204.7,196,204.7Z" fill="#fff8f4"/>
    </g>
    <g id="Group_49" data-name="Group 49">
      <path id="Path_7" data-name="Path 7" d="M204.2,210.2a10.634,10.634,0,0,1,.5-3.6c0-.3.2-.4.6-.4.2,0,.4.2.4.6a16.752,16.752,0,0,0-.4,4.1q0,1.8.9,1.8c1.1,0,2.9-1.5,5.3-4.5l.5-.2c.1,0,.1.1.2.1a.367.367,0,0,1,.1.3q0,.45-1.5,2.1c-1.8,2-3.3,3.1-4.6,3.2S204.2,212.6,204.2,210.2Zm.4-5.7c0-.5.2-.7.7-.7s.7.2.7.7-.2.7-.7.7A.684.684,0,0,1,204.6,204.5Z" fill="#fff8f4"/>
      <path id="Path_8" data-name="Path 8" d="M206.1,213.8a1.5,1.5,0,0,1-1.1-.4,4.37,4.37,0,0,1-.9-3.2,11.519,11.519,0,0,1,.5-3.6c0-.5.5-.5.7-.5.3,0,.5.2.5.7a15.751,15.751,0,0,0-.4,4.1c0,1.1.3,1.7.8,1.7.7,0,2.2-.8,5.2-4.4h0l.6-.2a.349.349,0,0,1,.2.1h.1v.1a.6.6,0,0,1,.1.4c0,.2-.2.7-1.5,2.2-1.9,2.1-3.4,3.1-4.7,3.2C206.2,213.8,206.1,213.8,206.1,213.8Zm-.8-7.5c-.5,0-.5.1-.5.3h0a11.519,11.519,0,0,0-.5,3.6,4.311,4.311,0,0,0,.8,3,.959.959,0,0,0,1,.3c1.2-.1,2.7-1.1,4.5-3.2,1.3-1.4,1.5-1.9,1.5-2v-.2a.1.1,0,0,1-.1-.1l-.4.2q-3.6,4.5-5.4,4.5c-.7,0-1-.7-1-1.9a15.751,15.751,0,0,1,.4-4.1A.446.446,0,0,0,205.3,206.3Zm0-1a.789.789,0,0,1-.8-.8c0-.6.3-.8.8-.8a.736.736,0,0,1,.8.8C206.1,205.1,205.9,205.3,205.3,205.3Zm0-1.4c-.4,0-.6.1-.6.6a.576.576,0,0,0,.6.6c.4,0,.6-.1.6-.6A.53.53,0,0,0,205.3,203.9Z" fill="#fff8f4"/>
    </g>
    <g id="Group_50" data-name="Group 50">
      <path id="Path_9" data-name="Path 9" d="M210.9,213.5c-.3-.2-.4-.7-.4-1.3a6.854,6.854,0,0,1,3.3-5.8,4.395,4.395,0,0,1,2.2-.7,3.534,3.534,0,0,1,1.9.6c.1,0,.1,0,.2.1s.1.1.1.2l-.1.2a6.174,6.174,0,0,0-.4,2.2,5.739,5.739,0,0,0,.1,1.2,1.881,1.881,0,0,0,.5,1.1,1.7,1.7,0,0,0,1.3.4c1.4,0,3.4-1.1,6.3-3.4l.4-.1c.3,0,.4.2.5.6a.52.52,0,0,1-.2.4c-3.1,2.4-5.4,3.6-7.1,3.6a2.035,2.035,0,0,1-1.5-.6,2.629,2.629,0,0,1-.9-1.4,5.245,5.245,0,0,1-.2-1.7c-2.2,3.2-3.9,4.8-5.2,4.8Zm2.4-1.9c.7-.8,1.4-1.6,2.2-2.5.7-.9,1.2-1.7,1.6-2.2l-1.1-.1a3.686,3.686,0,0,0-1.7.5,6.364,6.364,0,0,0-2.8,5c0,.4.1.5.1.5A4.409,4.409,0,0,0,213.3,211.6Z" fill="#fff8f4"/>
      <path id="Path_10" data-name="Path 10" d="M211.7,214h0l-.9-.4a1.668,1.668,0,0,1-.5-1.4,7,7,0,0,1,3.4-5.9,4.176,4.176,0,0,1,2.3-.7,3.077,3.077,0,0,1,1.9.6c.1,0,.1,0,.3.1a.367.367,0,0,1,.1.3v.1l-.1.2a7.117,7.117,0,0,0-.4,2.1,5.739,5.739,0,0,0,.1,1.2c.1.5.2.8.5,1a1.461,1.461,0,0,0,1.2.4c1.3,0,3.3-1.1,6.2-3.4h.1l.4-.1c.5,0,.6.3.7.7a.588.588,0,0,1-.2.5c-3.2,2.5-5.5,3.6-7.2,3.6a2.271,2.271,0,0,1-1.6-.6,2.551,2.551,0,0,1-.9-1.5,5.852,5.852,0,0,1-.2-1.3C214.6,212.6,213,214,211.7,214Zm-.7-.6.8.4c1.2,0,2.9-1.6,5.1-4.7l.3-.4v.5a5.245,5.245,0,0,0,.2,1.7,2.379,2.379,0,0,0,.9,1.3,1.816,1.816,0,0,0,1.4.6c1.6,0,3.9-1.1,7-3.6a.367.367,0,0,0,.1-.3c-.1-.4-.2-.5-.4-.5l-.3.1c-3,2.4-4.9,3.4-6.4,3.4a1.809,1.809,0,0,1-1.4-.4,1.911,1.911,0,0,1-.5-1.2,5.739,5.739,0,0,1-.1-1.2,7.973,7.973,0,0,1,.4-2.3l.1-.2h0l-.1-.1-.1-.1h0a3,3,0,0,0-1.8-.6,3.771,3.771,0,0,0-2.1.7,6.691,6.691,0,0,0-3.2,5.7A.973.973,0,0,0,211,213.4Zm.6-.4h0c-.1-.1-.2-.2-.2-.7,0-1.9,1-3.6,2.9-5.1a4.463,4.463,0,0,1,1.8-.5l1.4.1-.2.2a5.548,5.548,0,0,0-.6.8c-.3.4-.6.9-1,1.4q-1.2,1.35-2.1,2.4l-.1.1a7.1,7.1,0,0,1-1.9,1.3Zm4.4-6.1a3.675,3.675,0,0,0-1.6.5,6.2,6.2,0,0,0-2.7,4.9v.3a3.968,3.968,0,0,0,1.5-1.1l.1-.1,2.1-2.4c.4-.5.7-.9,1-1.3.2-.2.3-.5.5-.7Z" fill="#fff8f4"/>
    </g>
    <g id="Group_51" data-name="Group 51">
      <path id="Path_11" data-name="Path 11" d="M227.2,218a1.543,1.543,0,0,1-1-1.6c0-1.5,1-3.1,2.9-4.9a3.374,3.374,0,0,0-1.2-.4c-1.6-.6-2.3-1.4-2.3-2.4a4.925,4.925,0,0,1,.5-1.8c.5-1.1,1.2-1.7,2.1-1.7a1.4,1.4,0,0,1,1.1.8l.1.2a.55.55,0,0,1-.3.5c-.4,0-.6-.1-.7-.3-.1-.1-.1-.2-.2-.2l-.1.1a2.585,2.585,0,0,0-1.4,2.4,4.331,4.331,0,0,0,.1.5,3.807,3.807,0,0,0,.6.5,11.731,11.731,0,0,0,1.1.5c.4.2.9.4,1.5.7a12.03,12.03,0,0,1,4.7-2.5l.1-.1c.2,0,.3.1.4.4,0,.2-.2.4-.5.6a11.077,11.077,0,0,0-4.1,2.2,2.979,2.979,0,0,1,.7,1.8,4.514,4.514,0,0,1-.7,2.5,5.366,5.366,0,0,1-1.4,1.8,2.26,2.26,0,0,1-1.5.5A1.087,1.087,0,0,1,227.2,218Zm1.6-1.2a4.032,4.032,0,0,0,1.1-1.4,4.99,4.99,0,0,0,.5-2.1,1.366,1.366,0,0,0-.4-1.1c-1.9,1.6-2.8,2.9-2.8,4.1q0,.9.6.9A1.616,1.616,0,0,0,228.8,216.8Z" fill="#fff8f4"/>
      <path id="Path_12" data-name="Path 12" d="M227.7,218.2a1.676,1.676,0,0,1-1.7-1.8c0-1.5.9-3,2.8-4.9a6.214,6.214,0,0,0-1-.3c-1.6-.6-2.4-1.4-2.4-2.5a6.656,6.656,0,0,1,.5-1.9,2.474,2.474,0,0,1,2.2-1.8,1.467,1.467,0,0,1,1.2.9l.1.3a.548.548,0,0,1-.4.6h-.1c-.4,0-.7-.1-.8-.4l-.1-.1h0a2.453,2.453,0,0,0-1.3,2.3.367.367,0,0,0,.1.3v.1a2.181,2.181,0,0,0,.5.4l.6.3c.2.1.3.1.5.2l.6.3a5.9,5.9,0,0,1,.8.4,12.457,12.457,0,0,1,4.6-2.5l.1-.1h.1c.3,0,.4.2.5.5h0a.953.953,0,0,1-.6.7h-.1a10.775,10.775,0,0,0-3.9,2.1,3.427,3.427,0,0,1,.6,1.8,4.618,4.618,0,0,1-.7,2.6,6.615,6.615,0,0,1-1.4,1.8C228.8,218.1,228.3,218.2,227.7,218.2Zm.5-12.9c-.8,0-1.5.5-2,1.6a5.783,5.783,0,0,0-.5,1.7c0,1,.7,1.7,2.2,2.3a3.374,3.374,0,0,1,1.2.4l.1.1-.1.1c-1.9,1.8-2.9,3.4-2.9,4.8a1.464,1.464,0,0,0,.9,1.5h0a.756.756,0,0,0,.4.1,1.741,1.741,0,0,0,1.4-.5,5.366,5.366,0,0,0,1.4-1.8,4.2,4.2,0,0,0,.7-2.4,2.676,2.676,0,0,0-.7-1.7l-.1-.1.1-.1a11.054,11.054,0,0,1,4.1-2.2,1.2,1.2,0,0,0,.4-.4c-.1-.2-.1-.3-.2-.3l-.1.1h0a11.115,11.115,0,0,0-4.6,2.5l-.1.1h-.1a3.552,3.552,0,0,0-.9-.4l-.6-.3c-.2-.1-.3-.1-.5-.2l-.6-.3a3.807,3.807,0,0,1-.6-.5h0v-.2c0-.1-.1-.2-.1-.4a2.648,2.648,0,0,1,1.5-2.5l.1-.1h.1a.215.215,0,0,1,.2.2.1.1,0,0,0,.1.1h0a.588.588,0,0,0,.5.2c.1-.1.2-.2.2-.3l-.1-.2C228.9,205.6,228.5,205.3,228.2,205.3Zm-.4,12c-.3,0-.7-.2-.7-1,0-1.2.9-2.6,2.9-4.2l.1-.1.1.1a1.461,1.461,0,0,1,.4,1.2A5.065,5.065,0,0,1,229,217,3.013,3.013,0,0,1,227.8,217.3Zm2.2-4.9c-1.8,1.5-2.6,2.8-2.6,3.9,0,.8.3.8.5.8a1.222,1.222,0,0,0,.9-.4h0a4.032,4.032,0,0,0,1.1-1.4,4.919,4.919,0,0,0,.5-2A1.884,1.884,0,0,0,230,212.4Z" fill="#fff8f4"/>
    </g>
    <g id="Group_52" data-name="Group 52">
      <path id="Path_13" data-name="Path 13" d="M240.9,229.8c.1-.4.2-.5.5-.5.1,0,.1,0,.2.1a.367.367,0,0,0,.3.1c.3,0,.6-.2.9-.7,1.8-2.9,3.1-9.4,3.8-19.6h0l-.5-.5a5.547,5.547,0,0,1-1.7.3c-.3,0-.6-.1-.9-.1a2.074,2.074,0,0,1-1.4-2.2c0-1.1.4-1.7,1.1-1.7s1.9.9,3.3,2.6c.1,0,.2-.1.3-.1,0-1.1.1-2.2.1-3.2.1-1.6.1-3.1.1-4.5,0-3.5-.2-6.9-.5-10.2s-.9-5.5-1.7-6.6c-.1-.1-.2-.3-.3-.3s-.2-.1-.3-.1-.1,0-.2.1h-.2c-.1,0-.1,0-.2-.1a.215.215,0,0,1-.2-.2c-.1-.1-.1-.1-.1-.2q0-.6.9-.6a.756.756,0,0,1,.4.1c.2,0,.5.3.9.7,1.5,2.1,2.2,7.2,2.4,15.5,1.3-4.5,3-8.1,5.3-10.7a16.885,16.885,0,0,1,7.2-5.2,9.955,9.955,0,0,1,3.6-.7,4.987,4.987,0,0,1,3.9,1.6,4.24,4.24,0,0,1,1,3.1,11.622,11.622,0,0,1-1.5,4.8,42.122,42.122,0,0,1-8.8,10.2,45.958,45.958,0,0,1-10.9,7.3l-.1.8c2.4,2.8,4.5,5.1,6.4,7a48.989,48.989,0,0,0,6.6,5.6,12.524,12.524,0,0,0,7.2,2.3c3.3,0,6.2-1.7,9-5.1a.52.52,0,0,1,.4-.2c.1,0,.2.1.4.1a.52.52,0,0,1,.2.4.367.367,0,0,1-.1.3c-2.9,3.7-6.2,5.5-9.8,5.5a17.608,17.608,0,0,1-11.1-5,77.7,77.7,0,0,1-9-9.3.1.1,0,0,0-.1-.1.1.1,0,0,1-.1-.1,97.792,97.792,0,0,1-1.4,11.5,19.484,19.484,0,0,1-2.6,7.7,2.557,2.557,0,0,1-1.8,1.1C241.2,230.4,240.9,230.2,240.9,229.8Zm4.5-22.1c-1.2-1.3-1.9-1.9-2.2-1.9h0a1.719,1.719,0,0,0-.1.8,1.549,1.549,0,0,0,.2.8,1,1,0,0,0,.5.4c.2,0,.4.1.6.1C244.7,207.8,245,207.8,245.4,207.7Zm12.7-7.9a39.466,39.466,0,0,0,8.5-9.8,10.053,10.053,0,0,0,1.4-4.4,4.069,4.069,0,0,0-.8-2.4A4.378,4.378,0,0,0,264,182a9.946,9.946,0,0,0-3.2.6c-2.9,1-5.6,3.3-8.1,6.8s-4.1,8.4-4.8,14.7c0,.7,0,1.7-.1,2.8A49.079,49.079,0,0,0,258.1,199.8Z" fill="#fff8f4"/>
      <path id="Path_14" data-name="Path 14" d="M241.8,230.9h0c-.7-.4-1-.7-1-1.1h0c.1-.4.2-.6.6-.6a.367.367,0,0,1,.3.1c.1.1.1.1.2.1.3,0,.5-.2.8-.6,1.8-2.9,3.1-9.5,3.8-19.5l-.4-.4a5.322,5.322,0,0,1-2.1.2h-.4a3.744,3.744,0,0,1-1-.6,2.648,2.648,0,0,1-.5-1.7c0-1.2.5-1.8,1.2-1.8.8,0,2,.9,3.4,2.6h.1a8.6,8.6,0,0,1,.1-1.6v-1.5c.1-1.6.1-3.1.1-4.5,0-3.2-.2-6.5-.5-10.2-.3-3.2-.9-5.4-1.7-6.5l-.1-.1-.1-.1h0c-.1,0-.1,0-.2-.1h-.1l-.1.1h-.3a.367.367,0,0,1-.3-.1q-.15,0-.3-.3c-.1-.1-.1-.1-.1-.3,0-.3.2-.7,1-.7a.756.756,0,0,1,.4.1c.2,0,.5.3,1,.7,1.4,2,2.2,6.6,2.4,14.7a26.237,26.237,0,0,1,5.1-9.9c2.4-2.7,4.8-4.5,7.3-5.2a9.223,9.223,0,0,1,3.6-.7,5.061,5.061,0,0,1,4,1.6,4.4,4.4,0,0,1,1,3.2,11.975,11.975,0,0,1-1.5,4.9,40.654,40.654,0,0,1-8.8,10.2,47.153,47.153,0,0,1-10.9,7.3l-.1.7a93.554,93.554,0,0,0,6.4,6.9,46.817,46.817,0,0,0,6.6,5.6,12.266,12.266,0,0,0,7.1,2.3c3.2,0,6.1-1.7,8.9-5a.85.85,0,0,1,.5-.3h.2c.1,0,.1.1.2.1h.1a.588.588,0,0,1,.2.5.6.6,0,0,1-.1.4c-2.9,3.7-6.2,5.5-9.9,5.5a18.086,18.086,0,0,1-11.2-5,77.7,77.7,0,0,1-9-9.3,87.067,87.067,0,0,1-1.4,11.2,21.365,21.365,0,0,1-2.6,7.8A3,3,0,0,1,241.8,230.9Zm-.8-1.1c0,.3.2.5.8.8a2.81,2.81,0,0,0,1.7-1,20.156,20.156,0,0,0,2.6-7.6,113.057,113.057,0,0,0,1.4-11.5h.3a.215.215,0,0,1,.2.2,77.7,77.7,0,0,0,9,9.3,17.594,17.594,0,0,0,11,5c3.6,0,6.8-1.8,9.7-5.4.1-.1.1-.1.1-.2a.367.367,0,0,0-.1-.3.367.367,0,0,1-.3-.1h-.1c-.1,0-.2.1-.3.2-2.8,3.5-5.8,5.1-9.1,5.1a12.881,12.881,0,0,1-7.3-2.3,46.816,46.816,0,0,1-6.6-5.6c-1.9-1.9-4-4.2-6.4-7h0l.1-.9h.1a46.078,46.078,0,0,0,10.9-7.3,40.654,40.654,0,0,0,8.8-10.2,11.712,11.712,0,0,0,1.5-4.7,3.893,3.893,0,0,0-1-3,5.121,5.121,0,0,0-3.8-1.6,8.424,8.424,0,0,0-3.5.7,16.392,16.392,0,0,0-7.1,5.2c-2.2,2.5-3.9,6-5.3,10.6l-.3.9v-.9c-.2-8.5-1-13.4-2.4-15.4-.3-.3-.6-.6-.8-.6h-.1c-.2-.1-.2-.1-.3-.1-.8,0-.8.3-.8.5h0l.1.1h0v.1a.1.1,0,0,0,.1.1h.1l.1.1h.1c.1-.1.1-.1.3-.1.1,0,.2,0,.2.1h.1c.1,0,.2.1.3.2l.1.1c.9,1.2,1.4,3.5,1.7,6.7.3,3.7.5,7,.5,10.2,0,1.4,0,2.9-.1,4.5v1.5c0,.5-.1,1.1-.1,1.7v.1h-.2c-.1,0-.1.1-.2.1h-.1V208c-1.3-1.6-2.5-2.5-3.2-2.5-.8,0-1,1-1,1.6a2.25,2.25,0,0,0,.5,1.5,3.278,3.278,0,0,0,.8.6c.2,0,.3,0,.4.1h.4a5.547,5.547,0,0,0,1.7-.3h.1l.6.6v.1c-.7,10.1-2,16.7-3.8,19.7-.3.5-.6.8-1,.8a.6.6,0,0,1-.4-.1l-.1-.1h0C241.2,229.4,241.1,229.5,241,229.8Zm3.4-21.8h0a.756.756,0,0,1-.4-.1h-.4a1.333,1.333,0,0,1-.6-.5,1.69,1.69,0,0,1-.2-.9,2.483,2.483,0,0,1,.1-.9v-.1h.1c.3,0,.7.2,2.3,1.9l.2.2-.2.1a4.331,4.331,0,0,0-.5.1c-.1.2-.2.2-.4.2Zm-.6-.3a.367.367,0,0,1,.3.1h.2a.9.9,0,0,1,.5-.1h.2a9.242,9.242,0,0,0-1.8-1.7v.6a1.166,1.166,0,0,0,.2.7C243.5,207.5,243.7,207.6,243.8,207.7Zm3.8-.6v-.2c.1-1.1.1-2.1.1-2.8.7-6.3,2.3-11.3,4.8-14.8,2.5-3.6,5.3-5.9,8.2-6.9a11,11,0,0,1,3.2-.6,4.62,4.62,0,0,1,3.3,1.2,3.926,3.926,0,0,1,.8,2.5,10.807,10.807,0,0,1-1.4,4.5,37.49,37.49,0,0,1-8.5,9.8l-.1-.1.1.1a49.078,49.078,0,0,1-10.3,7.1Zm16.4-25a10.447,10.447,0,0,0-3.2.6c-2.8,1-5.5,3.2-8,6.7s-4.1,8.4-4.8,14.6a23.55,23.55,0,0,1-.1,2.5,45.864,45.864,0,0,0,10-7,39.152,39.152,0,0,0,8.5-9.8,10.1,10.1,0,0,0,1.4-4.3,4.006,4.006,0,0,0-.8-2.3A4.5,4.5,0,0,0,264,182.1Z" fill="#fff8f4"/>
    </g>
    <g id="Group_53" data-name="Group 53">
      <path id="Path_15" data-name="Path 15" d="M266,214.2c-1.1,0-1.6-1.3-1.6-3.9,0-3,.6-4.5,1.7-4.5.4,0,.6.1.7.3s0,.3,0,.4c0,.3-.2.4-.7.4-.5.5-.7,1.7-.7,3.6,0,1.8.2,2.7.7,2.7.6,0,1.3-1.4,2.3-4.3.3-1.2.6-1.9,1.1-2,.4,0,.6.4.8,1.2.6,2.3,1.3,3.4,2.2,3.4,1.2,0,2.7-1.1,4.6-3.2.1-.1.2-.1.4-.1a.472.472,0,0,1,.5.5v.1c0,.1-.1.2-.2.3-2,2.3-3.8,3.5-5.2,3.5-1.6,0-2.6-1.2-3.2-3.7-.8,3.5-1.9,5.3-3.4,5.3Z" fill="#fff8f4"/>
      <path id="Path_16" data-name="Path 16" d="M266,214.3c-1.2,0-1.7-1.3-1.7-4,0-3.1.6-4.6,1.8-4.6.4,0,.7.1.8.4.1.2.1.3,0,.4v.1c0,.5-.5.5-.8.5-.4.5-.6,1.6-.6,3.5,0,1.7.2,2.6.6,2.6.6,0,1.5-2.4,2.2-4.2.3-1.2.6-2,1.2-2.1h0c.6,0,.8.6,1,1.3q.9,3.3,2.1,3.3c1.1,0,2.5-1,4.5-3.2a.749.749,0,0,1,.5-.1.576.576,0,0,1,.6.6v.1a.52.52,0,0,1-.2.4c-2,2.3-3.8,3.5-5.3,3.5s-2.6-1-3.2-3.3C268.6,212.8,267.5,214.3,266,214.3Zm.1-8.4c-1,0-1.6,1.5-1.6,4.4,0,2.5.5,3.8,1.5,3.8,1.4,0,2.5-1.7,3.3-5.2l.1-.6.1.6c.6,2.5,1.6,3.6,3.1,3.6,1.4,0,3.1-1.2,5.1-3.5l.2-.2v-.1a.366.366,0,0,0-.4-.4c-.2,0-.2,0-.3.1-2,2.2-3.5,3.2-4.7,3.2-1,0-1.7-1.1-2.3-3.5-.2-.8-.4-1.1-.7-1.1-.4.1-.6.6-1,1.9-1.1,3.2-1.8,4.4-2.4,4.4s-.8-.8-.8-2.8.2-3.2.7-3.7h.1c.6,0,.6-.1.6-.3v-.3A.676.676,0,0,0,266.1,205.9Z" fill="#fff8f4"/>
    </g>
    <g id="Group_54" data-name="Group 54">
      <path id="Path_17" data-name="Path 17" d="M276.9,210.6c0-2.1.4-3.3,1.2-3.4.3,0,.5.1.5.3v.4c0,.1-.1.3-.4.4-.3.2-.4,1.1-.4,2.6a8.6,8.6,0,0,0,.1,1.6l.5-1.1c1.2-3,1.8-4.6,1.8-4.6s.4-.4,1-1.1c.5,0,.8.4,1,1.1a13.917,13.917,0,0,1,.5,3.9c1.1-2.5,2.2-3.7,3.1-3.7.6,0,1,.6,1.2,1.9.3,1.7.8,2.5,1.5,2.5,1,0,2.8-1,5.3-3.1.1-.1.2-.1.4-.1.1,0,.2.1.3.2s.2.2.2.3-.1.2-.2.4c-2.6,2.2-4.5,3.4-5.9,3.4a2.1,2.1,0,0,1-2-1.5,18.376,18.376,0,0,1-.7-2.4l-.2-.4c-.4,0-1,1-2,3-.4,1.1-.8,1.6-1,1.6-.5,0-.7-.2-.8-.7a33.132,33.132,0,0,1-.5-3.5l-.2-1.6a21.765,21.765,0,0,0-1.5,3.6c-.8,2.2-1.4,3.4-1.8,3.5C277.3,214,276.9,212.9,276.9,210.6Z" fill="#fff8f4"/>
      <path id="Path_18" data-name="Path 18" d="M277.9,214.2h0c-.8-.1-1.1-1.4-1.1-3.6s.4-3.4,1.3-3.5h0c.6,0,.7.3.7.4v.4c0,.2-.1.4-.5.5a6.36,6.36,0,0,0-.3,2.5V212l.3-.7c1.2-3,1.8-4.6,1.8-4.6v-.1s.4-.4,1-1.1h.1c.7,0,1,.7,1.1,1.2a11.419,11.419,0,0,1,.5,3.3c1-2.1,2-3.2,3-3.2.7,0,1.1.7,1.3,2,.3,1.6.7,2.4,1.4,2.4,1,0,2.9-1.1,5.2-3.1a.749.749,0,0,1,.5-.1.707.707,0,0,1,.6.6c0,.1-.1.2-.1.3a.349.349,0,0,0-.1.2h0c-2.8,2.4-4.6,3.4-6,3.4a2.1,2.1,0,0,1-2.1-1.6l-.1-.3q-.3-.9-.6-2.1l-.1-.3a13.444,13.444,0,0,0-1.8,2.9c-.4,1-.8,1.7-1.1,1.7-.6,0-.8-.2-.9-.8-.1-.4-.3-1.7-.5-3.5l-.1-1.2a20.954,20.954,0,0,0-1.3,3.2c-1.3,3.2-1.8,3.7-2.1,3.7Zm.2-6.9c-.7.1-1.1,1.2-1.1,3.3,0,2,.3,3.2.9,3.4.2-.1.7-.7,1.7-3.4a21.765,21.765,0,0,1,1.5-3.6l.2-.4.3,2a29.006,29.006,0,0,0,.5,3.5c.1.5.2.6.7.6.1,0,.4-.3.9-1.5,1.2-2.3,1.7-3.1,2.1-3.1h.1l.3.5q.3,1.2.6,2.1l.1.3a2.007,2.007,0,0,0,1.9,1.4c1.3,0,3-1,5.8-3.3,0-.1.1-.1.1-.2a.1.1,0,0,1,.1-.1l-.2-.2-.2-.2c-.2,0-.2,0-.3.1-2.4,2.1-4.3,3.1-5.4,3.1-.8,0-1.3-.9-1.6-2.6-.2-1.2-.5-1.8-1.1-1.8-.9,0-2,1.3-3,3.6l-.3.6v-.7a15.377,15.377,0,0,0-.5-3.9c-.2-.7-.4-1-.8-1-.5.6-.9.9-.9,1-.1.2-.7,1.8-1.8,4.6l-.7,1.5-.1-.4a8.6,8.6,0,0,1-.1-1.6c0-1.7.1-2.5.5-2.7h0q.3-.15.3-.3v-.4A1.055,1.055,0,0,0,278.1,207.3Z" fill="#fff8f4"/>
    </g>
  </g>
</svg>
