<svg xmlns="http://www.w3.org/2000/svg" width="104.672" height="36.429" viewBox="0 0 104.672 36.429">
  <g id="Group_16" data-name="Group 16" transform="translate(-92.782 -86)">
    <g id="LOGO_Marias_Rum-02" data-name="LOGO | Marias Rum-02" transform="translate(92.782 86)">
      <path id="Path_1" data-name="Path 1" d="M79.578,81.759Q78.12,72.143,75.352,72q-1.711.321-3.189,3.63a48.139,48.139,0,0,0-2.58,7.564c-.726,2.839-1.29,5.347-1.718,7.532q-.175-12.066-2.217-17.675c-.019-.052-.065-.194-.078-.24-.084-.078-1.225-3.85-3.228-3.8A.281.281,0,0,1,62.311,69h-.026q-2.129.019-3.973,4.284a69.757,69.757,0,0,0-4.239,15.3c-.026.136-.11.531-.136.655-.22,1.27-.875,6.65-.882,6.709q-.185,2.178-.188,4.012c0,2.839.4,4.271,1.186,4.271.149,0,.227-.136.227-.4,0-.1-.013-.181-.078-.227-.441-.473-.655-1.718-.655-3.74a36.264,36.264,0,0,1,.156-3.759c.052-.512.454-4.524.823-6.514.006-.026.045-.188.052-.246q.632-3.685,1.659-7.908,3.17-11.8,6-11.79a.968.968,0,0,1,.136.013c1.569.052,2.534,3.182,2.534,3.189a22.393,22.393,0,0,1,.655,2.372,81.735,81.735,0,0,1,1.672,15.543c.058,2.418.169,3.63.318,3.63.259,0,.382-.1.382-.318a98.178,98.178,0,0,1,4.33-17.047c1.108-2.9,2.191-4.343,3.254-4.343,1.167,0,2.307,3.04,3.435,9.146a86,86,0,0,1,1.277,14.435c0,4.557-.428,7.02-1.277,7.415-.169,0-.246.136-.246.4,0,.149.1.227.318.227h.078q1.41-.544,1.594-3.416c.123-1.912.181-3.539.181-4.861A81.633,81.633,0,0,0,79.578,81.759Z" transform="translate(-52.868 -69.003)" fill="#fff"/>
      <path id="Path_2" data-name="Path 2" d="M71.469,86.583a1.107,1.107,0,0,1-.259-.869,4.541,4.541,0,0,1,2.126-3.785,2.628,2.628,0,0,1,1.4-.441A2.6,2.6,0,0,1,76,81.852a.182.182,0,0,1,.136.058.212.212,0,0,1,.078.149l-.032.149a3.725,3.725,0,0,0-.227,1.458,5.312,5.312,0,0,0,.058.758,1.043,1.043,0,0,0,.337.7,1.248,1.248,0,0,0,.823.227c.882,0,2.236-.726,4.058-2.191l.246-.078c.181,0,.292.136.3.4a.229.229,0,0,1-.149.227c-1.977,1.562-3.507,2.353-4.6,2.353a1.485,1.485,0,0,1-.972-.363,1.7,1.7,0,0,1-.59-.94,4.272,4.272,0,0,1-.149-1.121c-1.445,2.081-2.554,3.131-3.357,3.131Zm1.569-1.244c.473-.5.927-1.05,1.4-1.64a13.8,13.8,0,0,0,1.018-1.445l-.7-.078a2.279,2.279,0,0,0-1.1.3,4.222,4.222,0,0,0-1.808,3.254c0,.227.032.35.091.35C72.2,86.084,72.565,85.825,73.038,85.339Z" transform="translate(-41.206 -61.065)" fill="#fff"/>
      <path id="Path_3" data-name="Path 3" d="M77.8,87.769c-.337-.169-.5-1.4-.5-3.662,0-2.048.214-3.066.668-3.066.259,0,.382.136.382.408a.431.431,0,0,1-.227.227,7.092,7.092,0,0,0-.169,1.886c0,.927.032,1.8.091,2.567l.149-.778c.4-2.294.869-3.435,1.4-3.435.292,0,.486.194.622.622A2.166,2.166,0,0,0,81.885,83.8a3.573,3.573,0,0,0,1.458-.408c.272,0,.408.1.428.318a.307.307,0,0,1-.194.3,4.1,4.1,0,0,1-1.653.428,2.472,2.472,0,0,1-2.249-1.594l-.149-.149-.7,2.813a11.226,11.226,0,0,1-.454,1.912c-.1.272-.246.408-.408.428Z" transform="translate(-37.337 -61.35)" fill="#fff"/>
      <path id="Path_4" data-name="Path 4" d="M80.926,84.893a6.346,6.346,0,0,1,.318-2.307c0-.169.136-.246.4-.246.149,0,.227.136.227.4a12.363,12.363,0,0,0-.246,2.657c0,.791.181,1.186.564,1.186.713,0,1.854-.972,3.435-2.917l.337-.1c.032,0,.078.032.136.091a.318.318,0,0,1,.078.181c0,.181-.337.635-.985,1.368a5.4,5.4,0,0,1-2.995,2.068C81.354,87.265,80.926,86.474,80.926,84.893ZM81.2,81.2a.414.414,0,0,1,.473-.473c.3,0,.454.149.454.473a.4.4,0,0,1-.454.454C81.354,81.659,81.2,81.5,81.2,81.2Z" transform="translate(-35.029 -61.546)" fill="#fff"/>
      <path id="Path_5" data-name="Path 5" d="M83.666,86.583a1.107,1.107,0,0,1-.259-.869,4.541,4.541,0,0,1,2.126-3.785,2.628,2.628,0,0,1,1.4-.441,2.6,2.6,0,0,1,1.264.363.182.182,0,0,1,.136.058.212.212,0,0,1,.078.149l-.032.149a3.725,3.725,0,0,0-.227,1.458,5.313,5.313,0,0,0,.058.758,1.043,1.043,0,0,0,.337.7,1.248,1.248,0,0,0,.823.227c.882,0,2.236-.726,4.058-2.191l.246-.078c.181,0,.292.136.3.4a.229.229,0,0,1-.149.227c-1.977,1.562-3.507,2.353-4.6,2.353a1.485,1.485,0,0,1-.972-.363,1.7,1.7,0,0,1-.59-.94,4.272,4.272,0,0,1-.149-1.121c-1.445,2.081-2.554,3.131-3.357,3.131Zm1.562-1.244c.473-.5.927-1.05,1.4-1.64a13.8,13.8,0,0,0,1.018-1.445l-.7-.078a2.279,2.279,0,0,0-1.1.3,4.222,4.222,0,0,0-1.808,3.254c0,.227.032.35.091.35C84.392,86.084,84.755,85.825,85.228,85.339Z" transform="translate(-33.452 -61.065)" fill="#fff"/>
      <path id="Path_6" data-name="Path 6" d="M90.442,89.618a1.033,1.033,0,0,1-.668-1.031c0-.959.635-2,1.912-3.189a2.519,2.519,0,0,0-.778-.227c-1-.4-1.491-.927-1.491-1.562a2.85,2.85,0,0,1,.318-1.167c.337-.745.778-1.108,1.335-1.108a.779.779,0,0,1,.681.486l.045.136a.358.358,0,0,1-.194.337c-.259,0-.4-.058-.428-.169-.032-.091-.058-.149-.123-.149l-.078.078a1.6,1.6,0,0,0-.914,1.549,1.411,1.411,0,0,0,.058.337.951.951,0,0,0,.382.3,7.152,7.152,0,0,0,.745.318,5.72,5.72,0,0,1,.972.473A8.08,8.08,0,0,1,95.27,83.4l.091-.045c.1,0,.194.091.292.272a.473.473,0,0,1-.3.4,7.346,7.346,0,0,0-2.657,1.4,1.955,1.955,0,0,1,.473,1.167,3.419,3.419,0,0,1-.428,1.64,3.592,3.592,0,0,1-.94,1.141,1.786,1.786,0,0,1-.972.35A1.823,1.823,0,0,1,90.442,89.618Zm1.024-.823a2.459,2.459,0,0,0,.7-.894,2.933,2.933,0,0,0,.318-1.335.965.965,0,0,0-.246-.7C91.019,86.9,90.4,87.777,90.4,88.49c0,.4.136.577.408.59A1.1,1.1,0,0,0,91.466,88.794Z" transform="translate(-29.631 -61.163)" fill="#fff"/>
      <path id="Path_7" data-name="Path 7" d="M95.444,103.351c.032-.233.149-.35.318-.35a.394.394,0,0,1,.117.032.4.4,0,0,0,.214.032c.181,0,.382-.149.616-.434,1.18-1.86,2.009-6.1,2.476-12.691,0-.019,0-.019-.019-.019l-.3-.35a4.273,4.273,0,0,1-1.128.182,2.433,2.433,0,0,1-.616-.084,1.418,1.418,0,0,1-.6-.4,1.462,1.462,0,0,1-.3-1.031c0-.745.233-1.115.681-1.115q.719,0,2.158,1.692c.052-.019.117-.032.182-.052,0-.713.032-1.413.084-2.074.032-1.011.052-2,.052-2.923,0-2.294-.117-4.5-.318-6.631a9.705,9.705,0,0,0-1.082-4.284,1.141,1.141,0,0,0-.2-.2.59.59,0,0,0-.169-.032c-.052.019-.084.019-.117.032a.211.211,0,0,1-.117.019.307.307,0,0,1-.149-.032A.193.193,0,0,1,97.1,72.5a.251.251,0,0,1-.032-.149c0-.246.181-.382.564-.382.052,0,.149.019.285.032s.331.169.583.447c.946,1.348,1.445,4.7,1.53,10.066a17.514,17.514,0,0,1,3.455-6.961,11.335,11.335,0,0,1,4.634-3.4,7.256,7.256,0,0,1,2.34-.447A3.345,3.345,0,0,1,113,72.712a2.963,2.963,0,0,1,.681,2.009,7.273,7.273,0,0,1-1,3.124,26.36,26.36,0,0,1-5.73,6.631A28.855,28.855,0,0,1,99.871,89.2l-.032.5c1.543,1.8,2.9,3.306,4.122,4.537a25.709,25.709,0,0,0,4.3,3.6,8.387,8.387,0,0,0,4.667,1.51c2.113,0,4.051-1.115,5.814-3.325a.382.382,0,0,1,.233-.136.429.429,0,0,1,.233.084.292.292,0,0,1,.117.246.351.351,0,0,1-.065.2c-1.893,2.372-4.006,3.571-6.326,3.571a11.831,11.831,0,0,1-7.227-3.254,50.525,50.525,0,0,1-5.846-6.028.227.227,0,0,1-.032-.052.228.228,0,0,0-.052-.032,68.992,68.992,0,0,1-.894,7.428,13.4,13.4,0,0,1-1.659,4.965,1.678,1.678,0,0,1-1.147.7C95.645,103.734,95.444,103.6,95.444,103.351Zm2.923-14.324C97.6,88.21,97.123,87.8,96.942,87.8l-.019.019a1.954,1.954,0,0,0-.052.5.768.768,0,0,0,.136.532.61.61,0,0,0,.318.233,2.4,2.4,0,0,0,.4.032A3.014,3.014,0,0,0,98.368,89.027Zm8.238-5.095a25.6,25.6,0,0,0,5.516-6.365,6.4,6.4,0,0,0,.894-2.871,2.333,2.333,0,0,0-.512-1.53,2.72,2.72,0,0,0-2.074-.8,6.257,6.257,0,0,0-2.074.4,11.36,11.36,0,0,0-5.263,4.4c-1.646,2.275-2.69,5.464-3.1,9.535,0,.48-.019,1.082-.065,1.8A31.306,31.306,0,0,0,106.606,83.932Z" transform="translate(-25.799 -67.287)" fill="#fff"/>
      <path id="Path_8" data-name="Path 8" d="M105.831,86.978c-.713,0-1.063-.849-1.063-2.534,0-1.932.382-2.9,1.121-2.9.272,0,.408.058.428.169a1.047,1.047,0,0,1,.013.227c0,.194-.136.292-.428.292a3.7,3.7,0,0,0-.473,2.353c0,1.186.149,1.776.473,1.776.363,0,.869-.94,1.491-2.813.169-.791.408-1.232.7-1.322q.34,0,.544.778c.363,1.471.836,2.2,1.413,2.2.758,0,1.75-.681,2.962-2.048a.317.317,0,0,1,.227-.078c.194,0,.3.1.35.318l.013.058c0,.078-.045.123-.123.169-1.322,1.5-2.431,2.249-3.345,2.249-1.018,0-1.7-.8-2.048-2.4-.564,2.34-1.29,3.507-2.191,3.507h-.065Z" transform="translate(-19.872 -61.032)" fill="#fff"/>
      <path id="Path_9" data-name="Path 9" d="M109.717,84.643c0-1.381.259-2.113.778-2.191.214,0,.337.058.35.194a2.479,2.479,0,0,1,.013.259c0,.078-.091.169-.259.292s-.259.7-.259,1.685a7.173,7.173,0,0,0,.078,1l.318-.7c.778-1.957,1.167-2.962,1.186-2.975s.246-.246.681-.681c.318,0,.531.246.668.726a10.3,10.3,0,0,1,.35,2.534c.726-1.607,1.4-2.418,2.022-2.418.382,0,.655.408.791,1.244.169,1.076.5,1.607,1,1.607.655,0,1.8-.668,3.448-1.99a.274.274,0,0,1,.227-.091.311.311,0,0,1,.181.1.264.264,0,0,1,.1.194.875.875,0,0,1-.136.246c-1.672,1.458-2.949,2.191-3.844,2.191a1.343,1.343,0,0,1-1.309-.972,10.441,10.441,0,0,1-.428-1.562l-.123-.272c-.227,0-.668.655-1.322,1.957-.259.681-.486,1.031-.668,1.031a.489.489,0,0,1-.519-.454c-.058-.292-.169-1.063-.3-2.294L112.6,82.3a10.245,10.245,0,0,0-.94,2.34c-.531,1.426-.914,2.191-1.167,2.262C109.977,86.905,109.717,86.147,109.717,84.643Z" transform="translate(-16.725 -61.037)" fill="#fff"/>
    </g>
  </g>
</svg>
