<svg xmlns="http://www.w3.org/2000/svg" width="395" height="395" viewBox="0 0 395 395">
  <g id="Group_25" data-name="Group 25" transform="translate(-359 -1540)">
    <rect id="pexels-yan-krukov-5793915" width="395" height="395" transform="translate(359 1540)" fill="#f5d4b0"/>
    <path id="Icon_awesome-image" data-name="Icon awesome-image" d="M156.889,134.339H16.23A16.23,16.23,0,0,1,0,118.109V20.73A16.23,16.23,0,0,1,16.23,4.5H156.889a16.23,16.23,0,0,1,16.23,16.23v97.38A16.23,16.23,0,0,1,156.889,134.339ZM37.87,23.435A18.935,18.935,0,1,0,56.8,42.37,18.935,18.935,0,0,0,37.87,23.435ZM21.64,112.7H151.479V74.83L121.888,45.239a4.058,4.058,0,0,0-5.738,0L70.33,91.06,51.559,72.289a4.058,4.058,0,0,0-5.738,0L21.64,96.47Z" transform="translate(469.94 1668.08)" fill="#5f3a31" opacity="0.1"/>
  </g>
</svg>
